<?xml version="1.0" encoding="utf-8" standalone="no"?>
<!DOCTYPE svg PUBLIC "-//W3C//DTD SVG 1.1//EN"
  "http://www.w3.org/Graphics/SVG/1.1/DTD/svg11.dtd">
<svg xmlns:xlink="http://www.w3.org/1999/xlink" width="573.281562pt" height="289.429531pt" viewBox="0 0 573.281562 289.429531" xmlns="http://www.w3.org/2000/svg" version="1.1">
 <metadata>
  <rdf:RDF xmlns:dc="http://purl.org/dc/elements/1.1/" xmlns:cc="http://creativecommons.org/ns#" xmlns:rdf="http://www.w3.org/1999/02/22-rdf-syntax-ns#">
   <cc:Work>
    <dc:type rdf:resource="http://purl.org/dc/dcmitype/StillImage"/>
    <dc:date>2026-03-29T21:04:21.797019</dc:date>
    <dc:format>image/svg+xml</dc:format>
    <dc:creator>
     <cc:Agent>
      <dc:title>Matplotlib v3.10.8, https://matplotlib.org/</dc:title>
     </cc:Agent>
    </dc:creator>
   </cc:Work>
  </rdf:RDF>
 </metadata>
 <defs>
  <style type="text/css">*{stroke-linejoin: round; stroke-linecap: butt}</style>
 </defs>
 <g id="figure_1">
  <g id="patch_1">
   <path d="M 0 289.429531 
L 573.281562 289.429531 
L 573.281562 0 
L 0 0 
z
" style="fill: #fafafa"/>
  </g>
  <g id="axes_1">
   <g id="patch_2">
    <path d="M 74.791562 255.77375 
L 561.041562 255.77375 
L 561.041562 28.53375 
L 74.791562 28.53375 
z
" style="fill: #fafafa"/>
   </g>
   <g id="patch_3">
    <path d="M 96.893835 255.77375 
L 119.758255 255.77375 
L 119.758255 164.672593 
L 96.893835 164.672593 
z
" clip-path="url(#pa3d644c262)" style="fill: #d94f2b"/>
   </g>
   <g id="patch_4">
    <path d="M 135.001202 255.77375 
L 157.865622 255.77375 
L 157.865622 155.639232 
L 135.001202 155.639232 
z
" clip-path="url(#pa3d644c262)" style="fill: #d94f2b"/>
   </g>
   <g id="patch_5">
    <path d="M 173.108569 255.77375 
L 195.972989 255.77375 
L 195.972989 147.279445 
L 173.108569 147.279445 
z
" clip-path="url(#pa3d644c262)" style="fill: #d94f2b"/>
   </g>
   <g id="patch_6">
    <path d="M 211.215936 255.77375 
L 234.080356 255.77375 
L 234.080356 138.619814 
L 211.215936 138.619814 
z
" clip-path="url(#pa3d644c262)" style="fill: #d94f2b"/>
   </g>
   <g id="patch_7">
    <path d="M 249.323302 255.77375 
L 272.187722 255.77375 
L 272.187722 130.353281 
L 249.323302 130.353281 
z
" clip-path="url(#pa3d644c262)" style="fill: #d94f2b"/>
   </g>
   <g id="patch_8">
    <path d="M 287.430669 255.77375 
L 310.295089 255.77375 
L 310.295089 121.808423 
L 287.430669 121.808423 
z
" clip-path="url(#pa3d644c262)" style="fill: #d94f2b"/>
   </g>
   <g id="patch_9">
    <path d="M 325.538036 255.77375 
L 348.402456 255.77375 
L 348.402456 135.845174 
L 325.538036 135.845174 
z
" clip-path="url(#pa3d644c262)" style="fill: #d94f2b"/>
   </g>
   <g id="patch_10">
    <path d="M 363.645403 255.77375 
L 386.509823 255.77375 
L 386.509823 123.018562 
L 363.645403 123.018562 
z
" clip-path="url(#pa3d644c262)" style="fill: #d94f2b"/>
   </g>
   <g id="patch_11">
    <path d="M 401.752769 255.77375 
L 424.617189 255.77375 
L 424.617189 104.066652 
L 401.752769 104.066652 
z
" clip-path="url(#pa3d644c262)" style="fill: #d94f2b"/>
   </g>
   <g id="patch_12">
    <path d="M 439.860136 255.77375 
L 462.724556 255.77375 
L 462.724556 83.13921 
L 439.860136 83.13921 
z
" clip-path="url(#pa3d644c262)" style="fill: #d94f2b"/>
   </g>
   <g id="patch_13">
    <path d="M 477.967503 255.77375 
L 500.831923 255.77375 
L 500.831923 65.876616 
L 477.967503 65.876616 
z
" clip-path="url(#pa3d644c262)" style="fill: #d94f2b"/>
   </g>
   <g id="patch_14">
    <path d="M 516.07487 255.77375 
L 538.93929 255.77375 
L 538.93929 39.354702 
L 516.07487 39.354702 
z
" clip-path="url(#pa3d644c262)" style="fill: #d94f2b"/>
   </g>
   <g id="matplotlib.axis_1">
    <g id="xtick_1">
     <g id="line2d_1">
      <path d="M 108.326045 255.77375 
L 108.326045 28.53375 
" clip-path="url(#pa3d644c262)" style="fill: none; stroke: #e0e0e0; stroke-opacity: 0.5; stroke-width: 0.8; stroke-linecap: square"/>
     </g>
     <g id="line2d_2">
      <defs>
       <path id="mbd0f6e593f" d="M 0 0 
L 0 3.5 
" style="stroke: #333333; stroke-width: 0.8"/>
      </defs>
      <g>
       <use xlink:href="#mbd0f6e593f" x="108.326045" y="255.77375" style="fill: #333333; stroke: #333333; stroke-width: 0.8"/>
      </g>
     </g>
     <g id="text_1">
      <!-- 2014 -->
      <g style="fill: #333333" transform="translate(95.601045 270.372187) scale(0.1 -0.1)">
       <defs>
        <path id="DejaVuSans-32" d="M 1228 531 
L 3431 531 
L 3431 0 
L 469 0 
L 469 531 
Q 828 903 1448 1529 
Q 2069 2156 2228 2338 
Q 2531 2678 2651 2914 
Q 2772 3150 2772 3378 
Q 2772 3750 2511 3984 
Q 2250 4219 1831 4219 
Q 1534 4219 1204 4116 
Q 875 4013 500 3803 
L 500 4441 
Q 881 4594 1212 4672 
Q 1544 4750 1819 4750 
Q 2544 4750 2975 4387 
Q 3406 4025 3406 3419 
Q 3406 3131 3298 2873 
Q 3191 2616 2906 2266 
Q 2828 2175 2409 1742 
Q 1991 1309 1228 531 
z
" transform="scale(0.015625)"/>
        <path id="DejaVuSans-30" d="M 2034 4250 
Q 1547 4250 1301 3770 
Q 1056 3291 1056 2328 
Q 1056 1369 1301 889 
Q 1547 409 2034 409 
Q 2525 409 2770 889 
Q 3016 1369 3016 2328 
Q 3016 3291 2770 3770 
Q 2525 4250 2034 4250 
z
M 2034 4750 
Q 2819 4750 3233 4129 
Q 3647 3509 3647 2328 
Q 3647 1150 3233 529 
Q 2819 -91 2034 -91 
Q 1250 -91 836 529 
Q 422 1150 422 2328 
Q 422 3509 836 4129 
Q 1250 4750 2034 4750 
z
" transform="scale(0.015625)"/>
        <path id="DejaVuSans-31" d="M 794 531 
L 1825 531 
L 1825 4091 
L 703 3866 
L 703 4441 
L 1819 4666 
L 2450 4666 
L 2450 531 
L 3481 531 
L 3481 0 
L 794 0 
L 794 531 
z
" transform="scale(0.015625)"/>
        <path id="DejaVuSans-34" d="M 2419 4116 
L 825 1625 
L 2419 1625 
L 2419 4116 
z
M 2253 4666 
L 3047 4666 
L 3047 1625 
L 3713 1625 
L 3713 1100 
L 3047 1100 
L 3047 0 
L 2419 0 
L 2419 1100 
L 313 1100 
L 313 1709 
L 2253 4666 
z
" transform="scale(0.015625)"/>
       </defs>
       <use xlink:href="#DejaVuSans-32"/>
       <use xlink:href="#DejaVuSans-30" transform="translate(63.623047 0)"/>
       <use xlink:href="#DejaVuSans-31" transform="translate(127.246094 0)"/>
       <use xlink:href="#DejaVuSans-34" transform="translate(190.869141 0)"/>
      </g>
     </g>
    </g>
    <g id="xtick_2">
     <g id="line2d_3">
      <path d="M 146.433412 255.77375 
L 146.433412 28.53375 
" clip-path="url(#pa3d644c262)" style="fill: none; stroke: #e0e0e0; stroke-opacity: 0.5; stroke-width: 0.8; stroke-linecap: square"/>
     </g>
     <g id="line2d_4">
      <g>
       <use xlink:href="#mbd0f6e593f" x="146.433412" y="255.77375" style="fill: #333333; stroke: #333333; stroke-width: 0.8"/>
      </g>
     </g>
     <g id="text_2">
      <!-- 2015 -->
      <g style="fill: #333333" transform="translate(133.708412 270.372187) scale(0.1 -0.1)">
       <defs>
        <path id="DejaVuSans-35" d="M 691 4666 
L 3169 4666 
L 3169 4134 
L 1269 4134 
L 1269 2991 
Q 1406 3038 1543 3061 
Q 1681 3084 1819 3084 
Q 2600 3084 3056 2656 
Q 3513 2228 3513 1497 
Q 3513 744 3044 326 
Q 2575 -91 1722 -91 
Q 1428 -91 1123 -41 
Q 819 9 494 109 
L 494 744 
Q 775 591 1075 516 
Q 1375 441 1709 441 
Q 2250 441 2565 725 
Q 2881 1009 2881 1497 
Q 2881 1984 2565 2268 
Q 2250 2553 1709 2553 
Q 1456 2553 1204 2497 
Q 953 2441 691 2322 
L 691 4666 
z
" transform="scale(0.015625)"/>
       </defs>
       <use xlink:href="#DejaVuSans-32"/>
       <use xlink:href="#DejaVuSans-30" transform="translate(63.623047 0)"/>
       <use xlink:href="#DejaVuSans-31" transform="translate(127.246094 0)"/>
       <use xlink:href="#DejaVuSans-35" transform="translate(190.869141 0)"/>
      </g>
     </g>
    </g>
    <g id="xtick_3">
     <g id="line2d_5">
      <path d="M 184.540779 255.77375 
L 184.540779 28.53375 
" clip-path="url(#pa3d644c262)" style="fill: none; stroke: #e0e0e0; stroke-opacity: 0.5; stroke-width: 0.8; stroke-linecap: square"/>
     </g>
     <g id="line2d_6">
      <g>
       <use xlink:href="#mbd0f6e593f" x="184.540779" y="255.77375" style="fill: #333333; stroke: #333333; stroke-width: 0.8"/>
      </g>
     </g>
     <g id="text_3">
      <!-- 2016 -->
      <g style="fill: #333333" transform="translate(171.815779 270.372187) scale(0.1 -0.1)">
       <defs>
        <path id="DejaVuSans-36" d="M 2113 2584 
Q 1688 2584 1439 2293 
Q 1191 2003 1191 1497 
Q 1191 994 1439 701 
Q 1688 409 2113 409 
Q 2538 409 2786 701 
Q 3034 994 3034 1497 
Q 3034 2003 2786 2293 
Q 2538 2584 2113 2584 
z
M 3366 4563 
L 3366 3988 
Q 3128 4100 2886 4159 
Q 2644 4219 2406 4219 
Q 1781 4219 1451 3797 
Q 1122 3375 1075 2522 
Q 1259 2794 1537 2939 
Q 1816 3084 2150 3084 
Q 2853 3084 3261 2657 
Q 3669 2231 3669 1497 
Q 3669 778 3244 343 
Q 2819 -91 2113 -91 
Q 1303 -91 875 529 
Q 447 1150 447 2328 
Q 447 3434 972 4092 
Q 1497 4750 2381 4750 
Q 2619 4750 2861 4703 
Q 3103 4656 3366 4563 
z
" transform="scale(0.015625)"/>
       </defs>
       <use xlink:href="#DejaVuSans-32"/>
       <use xlink:href="#DejaVuSans-30" transform="translate(63.623047 0)"/>
       <use xlink:href="#DejaVuSans-31" transform="translate(127.246094 0)"/>
       <use xlink:href="#DejaVuSans-36" transform="translate(190.869141 0)"/>
      </g>
     </g>
    </g>
    <g id="xtick_4">
     <g id="line2d_7">
      <path d="M 222.648146 255.77375 
L 222.648146 28.53375 
" clip-path="url(#pa3d644c262)" style="fill: none; stroke: #e0e0e0; stroke-opacity: 0.5; stroke-width: 0.8; stroke-linecap: square"/>
     </g>
     <g id="line2d_8">
      <g>
       <use xlink:href="#mbd0f6e593f" x="222.648146" y="255.77375" style="fill: #333333; stroke: #333333; stroke-width: 0.8"/>
      </g>
     </g>
     <g id="text_4">
      <!-- 2017 -->
      <g style="fill: #333333" transform="translate(209.923146 270.372187) scale(0.1 -0.1)">
       <defs>
        <path id="DejaVuSans-37" d="M 525 4666 
L 3525 4666 
L 3525 4397 
L 1831 0 
L 1172 0 
L 2766 4134 
L 525 4134 
L 525 4666 
z
" transform="scale(0.015625)"/>
       </defs>
       <use xlink:href="#DejaVuSans-32"/>
       <use xlink:href="#DejaVuSans-30" transform="translate(63.623047 0)"/>
       <use xlink:href="#DejaVuSans-31" transform="translate(127.246094 0)"/>
       <use xlink:href="#DejaVuSans-37" transform="translate(190.869141 0)"/>
      </g>
     </g>
    </g>
    <g id="xtick_5">
     <g id="line2d_9">
      <path d="M 260.755512 255.77375 
L 260.755512 28.53375 
" clip-path="url(#pa3d644c262)" style="fill: none; stroke: #e0e0e0; stroke-opacity: 0.5; stroke-width: 0.8; stroke-linecap: square"/>
     </g>
     <g id="line2d_10">
      <g>
       <use xlink:href="#mbd0f6e593f" x="260.755512" y="255.77375" style="fill: #333333; stroke: #333333; stroke-width: 0.8"/>
      </g>
     </g>
     <g id="text_5">
      <!-- 2018 -->
      <g style="fill: #333333" transform="translate(248.030512 270.372187) scale(0.1 -0.1)">
       <defs>
        <path id="DejaVuSans-38" d="M 2034 2216 
Q 1584 2216 1326 1975 
Q 1069 1734 1069 1313 
Q 1069 891 1326 650 
Q 1584 409 2034 409 
Q 2484 409 2743 651 
Q 3003 894 3003 1313 
Q 3003 1734 2745 1975 
Q 2488 2216 2034 2216 
z
M 1403 2484 
Q 997 2584 770 2862 
Q 544 3141 544 3541 
Q 544 4100 942 4425 
Q 1341 4750 2034 4750 
Q 2731 4750 3128 4425 
Q 3525 4100 3525 3541 
Q 3525 3141 3298 2862 
Q 3072 2584 2669 2484 
Q 3125 2378 3379 2068 
Q 3634 1759 3634 1313 
Q 3634 634 3220 271 
Q 2806 -91 2034 -91 
Q 1263 -91 848 271 
Q 434 634 434 1313 
Q 434 1759 690 2068 
Q 947 2378 1403 2484 
z
M 1172 3481 
Q 1172 3119 1398 2916 
Q 1625 2713 2034 2713 
Q 2441 2713 2670 2916 
Q 2900 3119 2900 3481 
Q 2900 3844 2670 4047 
Q 2441 4250 2034 4250 
Q 1625 4250 1398 4047 
Q 1172 3844 1172 3481 
z
" transform="scale(0.015625)"/>
       </defs>
       <use xlink:href="#DejaVuSans-32"/>
       <use xlink:href="#DejaVuSans-30" transform="translate(63.623047 0)"/>
       <use xlink:href="#DejaVuSans-31" transform="translate(127.246094 0)"/>
       <use xlink:href="#DejaVuSans-38" transform="translate(190.869141 0)"/>
      </g>
     </g>
    </g>
    <g id="xtick_6">
     <g id="line2d_11">
      <path d="M 298.862879 255.77375 
L 298.862879 28.53375 
" clip-path="url(#pa3d644c262)" style="fill: none; stroke: #e0e0e0; stroke-opacity: 0.5; stroke-width: 0.8; stroke-linecap: square"/>
     </g>
     <g id="line2d_12">
      <g>
       <use xlink:href="#mbd0f6e593f" x="298.862879" y="255.77375" style="fill: #333333; stroke: #333333; stroke-width: 0.8"/>
      </g>
     </g>
     <g id="text_6">
      <!-- 2019 -->
      <g style="fill: #333333" transform="translate(286.137879 270.372187) scale(0.1 -0.1)">
       <defs>
        <path id="DejaVuSans-39" d="M 703 97 
L 703 672 
Q 941 559 1184 500 
Q 1428 441 1663 441 
Q 2288 441 2617 861 
Q 2947 1281 2994 2138 
Q 2813 1869 2534 1725 
Q 2256 1581 1919 1581 
Q 1219 1581 811 2004 
Q 403 2428 403 3163 
Q 403 3881 828 4315 
Q 1253 4750 1959 4750 
Q 2769 4750 3195 4129 
Q 3622 3509 3622 2328 
Q 3622 1225 3098 567 
Q 2575 -91 1691 -91 
Q 1453 -91 1209 -44 
Q 966 3 703 97 
z
M 1959 2075 
Q 2384 2075 2632 2365 
Q 2881 2656 2881 3163 
Q 2881 3666 2632 3958 
Q 2384 4250 1959 4250 
Q 1534 4250 1286 3958 
Q 1038 3666 1038 3163 
Q 1038 2656 1286 2365 
Q 1534 2075 1959 2075 
z
" transform="scale(0.015625)"/>
       </defs>
       <use xlink:href="#DejaVuSans-32"/>
       <use xlink:href="#DejaVuSans-30" transform="translate(63.623047 0)"/>
       <use xlink:href="#DejaVuSans-31" transform="translate(127.246094 0)"/>
       <use xlink:href="#DejaVuSans-39" transform="translate(190.869141 0)"/>
      </g>
     </g>
    </g>
    <g id="xtick_7">
     <g id="line2d_13">
      <path d="M 336.970246 255.77375 
L 336.970246 28.53375 
" clip-path="url(#pa3d644c262)" style="fill: none; stroke: #e0e0e0; stroke-opacity: 0.5; stroke-width: 0.8; stroke-linecap: square"/>
     </g>
     <g id="line2d_14">
      <g>
       <use xlink:href="#mbd0f6e593f" x="336.970246" y="255.77375" style="fill: #333333; stroke: #333333; stroke-width: 0.8"/>
      </g>
     </g>
     <g id="text_7">
      <!-- 2020 -->
      <g style="fill: #333333" transform="translate(324.245246 270.372187) scale(0.1 -0.1)">
       <use xlink:href="#DejaVuSans-32"/>
       <use xlink:href="#DejaVuSans-30" transform="translate(63.623047 0)"/>
       <use xlink:href="#DejaVuSans-32" transform="translate(127.246094 0)"/>
       <use xlink:href="#DejaVuSans-30" transform="translate(190.869141 0)"/>
      </g>
     </g>
    </g>
    <g id="xtick_8">
     <g id="line2d_15">
      <path d="M 375.077613 255.77375 
L 375.077613 28.53375 
" clip-path="url(#pa3d644c262)" style="fill: none; stroke: #e0e0e0; stroke-opacity: 0.5; stroke-width: 0.8; stroke-linecap: square"/>
     </g>
     <g id="line2d_16">
      <g>
       <use xlink:href="#mbd0f6e593f" x="375.077613" y="255.77375" style="fill: #333333; stroke: #333333; stroke-width: 0.8"/>
      </g>
     </g>
     <g id="text_8">
      <!-- 2021 -->
      <g style="fill: #333333" transform="translate(362.352613 270.372187) scale(0.1 -0.1)">
       <use xlink:href="#DejaVuSans-32"/>
       <use xlink:href="#DejaVuSans-30" transform="translate(63.623047 0)"/>
       <use xlink:href="#DejaVuSans-32" transform="translate(127.246094 0)"/>
       <use xlink:href="#DejaVuSans-31" transform="translate(190.869141 0)"/>
      </g>
     </g>
    </g>
    <g id="xtick_9">
     <g id="line2d_17">
      <path d="M 413.184979 255.77375 
L 413.184979 28.53375 
" clip-path="url(#pa3d644c262)" style="fill: none; stroke: #e0e0e0; stroke-opacity: 0.5; stroke-width: 0.8; stroke-linecap: square"/>
     </g>
     <g id="line2d_18">
      <g>
       <use xlink:href="#mbd0f6e593f" x="413.184979" y="255.77375" style="fill: #333333; stroke: #333333; stroke-width: 0.8"/>
      </g>
     </g>
     <g id="text_9">
      <!-- 2022 -->
      <g style="fill: #333333" transform="translate(400.459979 270.372187) scale(0.1 -0.1)">
       <use xlink:href="#DejaVuSans-32"/>
       <use xlink:href="#DejaVuSans-30" transform="translate(63.623047 0)"/>
       <use xlink:href="#DejaVuSans-32" transform="translate(127.246094 0)"/>
       <use xlink:href="#DejaVuSans-32" transform="translate(190.869141 0)"/>
      </g>
     </g>
    </g>
    <g id="xtick_10">
     <g id="line2d_19">
      <path d="M 451.292346 255.77375 
L 451.292346 28.53375 
" clip-path="url(#pa3d644c262)" style="fill: none; stroke: #e0e0e0; stroke-opacity: 0.5; stroke-width: 0.8; stroke-linecap: square"/>
     </g>
     <g id="line2d_20">
      <g>
       <use xlink:href="#mbd0f6e593f" x="451.292346" y="255.77375" style="fill: #333333; stroke: #333333; stroke-width: 0.8"/>
      </g>
     </g>
     <g id="text_10">
      <!-- 2023 -->
      <g style="fill: #333333" transform="translate(438.567346 270.372187) scale(0.1 -0.1)">
       <defs>
        <path id="DejaVuSans-33" d="M 2597 2516 
Q 3050 2419 3304 2112 
Q 3559 1806 3559 1356 
Q 3559 666 3084 287 
Q 2609 -91 1734 -91 
Q 1441 -91 1130 -33 
Q 819 25 488 141 
L 488 750 
Q 750 597 1062 519 
Q 1375 441 1716 441 
Q 2309 441 2620 675 
Q 2931 909 2931 1356 
Q 2931 1769 2642 2001 
Q 2353 2234 1838 2234 
L 1294 2234 
L 1294 2753 
L 1863 2753 
Q 2328 2753 2575 2939 
Q 2822 3125 2822 3475 
Q 2822 3834 2567 4026 
Q 2313 4219 1838 4219 
Q 1578 4219 1281 4162 
Q 984 4106 628 3988 
L 628 4550 
Q 988 4650 1302 4700 
Q 1616 4750 1894 4750 
Q 2613 4750 3031 4423 
Q 3450 4097 3450 3541 
Q 3450 3153 3228 2886 
Q 3006 2619 2597 2516 
z
" transform="scale(0.015625)"/>
       </defs>
       <use xlink:href="#DejaVuSans-32"/>
       <use xlink:href="#DejaVuSans-30" transform="translate(63.623047 0)"/>
       <use xlink:href="#DejaVuSans-32" transform="translate(127.246094 0)"/>
       <use xlink:href="#DejaVuSans-33" transform="translate(190.869141 0)"/>
      </g>
     </g>
    </g>
    <g id="xtick_11">
     <g id="line2d_21">
      <path d="M 489.399713 255.77375 
L 489.399713 28.53375 
" clip-path="url(#pa3d644c262)" style="fill: none; stroke: #e0e0e0; stroke-opacity: 0.5; stroke-width: 0.8; stroke-linecap: square"/>
     </g>
     <g id="line2d_22">
      <g>
       <use xlink:href="#mbd0f6e593f" x="489.399713" y="255.77375" style="fill: #333333; stroke: #333333; stroke-width: 0.8"/>
      </g>
     </g>
     <g id="text_11">
      <!-- 2024 -->
      <g style="fill: #333333" transform="translate(476.674713 270.372187) scale(0.1 -0.1)">
       <use xlink:href="#DejaVuSans-32"/>
       <use xlink:href="#DejaVuSans-30" transform="translate(63.623047 0)"/>
       <use xlink:href="#DejaVuSans-32" transform="translate(127.246094 0)"/>
       <use xlink:href="#DejaVuSans-34" transform="translate(190.869141 0)"/>
      </g>
     </g>
    </g>
    <g id="xtick_12">
     <g id="line2d_23">
      <path d="M 527.50708 255.77375 
L 527.50708 28.53375 
" clip-path="url(#pa3d644c262)" style="fill: none; stroke: #e0e0e0; stroke-opacity: 0.5; stroke-width: 0.8; stroke-linecap: square"/>
     </g>
     <g id="line2d_24">
      <g>
       <use xlink:href="#mbd0f6e593f" x="527.50708" y="255.77375" style="fill: #333333; stroke: #333333; stroke-width: 0.8"/>
      </g>
     </g>
     <g id="text_12">
      <!-- 2025 -->
      <g style="fill: #333333" transform="translate(514.78208 270.372187) scale(0.1 -0.1)">
       <use xlink:href="#DejaVuSans-32"/>
       <use xlink:href="#DejaVuSans-30" transform="translate(63.623047 0)"/>
       <use xlink:href="#DejaVuSans-32" transform="translate(127.246094 0)"/>
       <use xlink:href="#DejaVuSans-35" transform="translate(190.869141 0)"/>
      </g>
     </g>
    </g>
   </g>
   <g id="matplotlib.axis_2">
    <g id="ytick_1">
     <g id="line2d_25">
      <path d="M 74.791562 255.77375 
L 561.041562 255.77375 
" clip-path="url(#pa3d644c262)" style="fill: none; stroke: #e0e0e0; stroke-opacity: 0.5; stroke-width: 0.8; stroke-linecap: square"/>
     </g>
     <g id="line2d_26">
      <defs>
       <path id="mfe754c88bc" d="M 0 0 
L -3.5 0 
" style="stroke: #333333; stroke-width: 0.8"/>
      </defs>
      <g>
       <use xlink:href="#mfe754c88bc" x="74.791562" y="255.77375" style="fill: #333333; stroke: #333333; stroke-width: 0.8"/>
      </g>
     </g>
     <g id="text_13">
      <!-- R$ 0 bi -->
      <g style="fill: #333333" transform="translate(32.635312 259.572969) scale(0.1 -0.1)">
       <defs>
        <path id="DejaVuSans-52" d="M 2841 2188 
Q 3044 2119 3236 1894 
Q 3428 1669 3622 1275 
L 4263 0 
L 3584 0 
L 2988 1197 
Q 2756 1666 2539 1819 
Q 2322 1972 1947 1972 
L 1259 1972 
L 1259 0 
L 628 0 
L 628 4666 
L 2053 4666 
Q 2853 4666 3247 4331 
Q 3641 3997 3641 3322 
Q 3641 2881 3436 2590 
Q 3231 2300 2841 2188 
z
M 1259 4147 
L 1259 2491 
L 2053 2491 
Q 2509 2491 2742 2702 
Q 2975 2913 2975 3322 
Q 2975 3731 2742 3939 
Q 2509 4147 2053 4147 
L 1259 4147 
z
" transform="scale(0.015625)"/>
        <path id="DejaVuSans-24" d="M 2163 -941 
L 1850 -941 
L 1847 0 
Q 1519 6 1191 76 
Q 863 147 531 288 
L 531 850 
Q 850 650 1176 548 
Q 1503 447 1850 444 
L 1850 1869 
Q 1159 1981 845 2250 
Q 531 2519 531 2988 
Q 531 3497 872 3790 
Q 1213 4084 1850 4128 
L 1850 4863 
L 2163 4863 
L 2163 4138 
Q 2453 4125 2725 4076 
Q 2997 4028 3256 3944 
L 3256 3397 
Q 2997 3528 2723 3600 
Q 2450 3672 2163 3684 
L 2163 2350 
Q 2872 2241 3206 1959 
Q 3541 1678 3541 1191 
Q 3541 663 3186 358 
Q 2831 53 2163 6 
L 2163 -941 
z
M 1850 2406 
L 1850 3688 
Q 1488 3647 1297 3481 
Q 1106 3316 1106 3041 
Q 1106 2772 1282 2622 
Q 1459 2472 1850 2406 
z
M 2163 1806 
L 2163 453 
Q 2559 506 2761 678 
Q 2963 850 2963 1131 
Q 2963 1406 2770 1568 
Q 2578 1731 2163 1806 
z
" transform="scale(0.015625)"/>
        <path id="DejaVuSans-20" transform="scale(0.015625)"/>
        <path id="DejaVuSans-62" d="M 3116 1747 
Q 3116 2381 2855 2742 
Q 2594 3103 2138 3103 
Q 1681 3103 1420 2742 
Q 1159 2381 1159 1747 
Q 1159 1113 1420 752 
Q 1681 391 2138 391 
Q 2594 391 2855 752 
Q 3116 1113 3116 1747 
z
M 1159 2969 
Q 1341 3281 1617 3432 
Q 1894 3584 2278 3584 
Q 2916 3584 3314 3078 
Q 3713 2572 3713 1747 
Q 3713 922 3314 415 
Q 2916 -91 2278 -91 
Q 1894 -91 1617 61 
Q 1341 213 1159 525 
L 1159 0 
L 581 0 
L 581 4863 
L 1159 4863 
L 1159 2969 
z
" transform="scale(0.015625)"/>
        <path id="DejaVuSans-69" d="M 603 3500 
L 1178 3500 
L 1178 0 
L 603 0 
L 603 3500 
z
M 603 4863 
L 1178 4863 
L 1178 4134 
L 603 4134 
L 603 4863 
z
" transform="scale(0.015625)"/>
       </defs>
       <use xlink:href="#DejaVuSans-52"/>
       <use xlink:href="#DejaVuSans-24" transform="translate(69.482422 0)"/>
       <use xlink:href="#DejaVuSans-20" transform="translate(133.105469 0)"/>
       <use xlink:href="#DejaVuSans-30" transform="translate(164.892578 0)"/>
       <use xlink:href="#DejaVuSans-20" transform="translate(228.515625 0)"/>
       <use xlink:href="#DejaVuSans-62" transform="translate(260.302734 0)"/>
       <use xlink:href="#DejaVuSans-69" transform="translate(323.779297 0)"/>
      </g>
     </g>
    </g>
    <g id="ytick_2">
     <g id="line2d_27">
      <path d="M 74.791562 219.907153 
L 561.041562 219.907153 
" clip-path="url(#pa3d644c262)" style="fill: none; stroke: #e0e0e0; stroke-opacity: 0.5; stroke-width: 0.8; stroke-linecap: square"/>
     </g>
     <g id="line2d_28">
      <g>
       <use xlink:href="#mfe754c88bc" x="74.791562" y="219.907153" style="fill: #333333; stroke: #333333; stroke-width: 0.8"/>
      </g>
     </g>
     <g id="text_14">
      <!-- R$ 50 bi -->
      <g style="fill: #333333" transform="translate(26.272812 223.706372) scale(0.1 -0.1)">
       <use xlink:href="#DejaVuSans-52"/>
       <use xlink:href="#DejaVuSans-24" transform="translate(69.482422 0)"/>
       <use xlink:href="#DejaVuSans-20" transform="translate(133.105469 0)"/>
       <use xlink:href="#DejaVuSans-35" transform="translate(164.892578 0)"/>
       <use xlink:href="#DejaVuSans-30" transform="translate(228.515625 0)"/>
       <use xlink:href="#DejaVuSans-20" transform="translate(292.138672 0)"/>
       <use xlink:href="#DejaVuSans-62" transform="translate(323.925781 0)"/>
       <use xlink:href="#DejaVuSans-69" transform="translate(387.402344 0)"/>
      </g>
     </g>
    </g>
    <g id="ytick_3">
     <g id="line2d_29">
      <path d="M 74.791562 184.040556 
L 561.041562 184.040556 
" clip-path="url(#pa3d644c262)" style="fill: none; stroke: #e0e0e0; stroke-opacity: 0.5; stroke-width: 0.8; stroke-linecap: square"/>
     </g>
     <g id="line2d_30">
      <g>
       <use xlink:href="#mfe754c88bc" x="74.791562" y="184.040556" style="fill: #333333; stroke: #333333; stroke-width: 0.8"/>
      </g>
     </g>
     <g id="text_15">
      <!-- R$ 100 bi -->
      <g style="fill: #333333" transform="translate(19.910312 187.839774) scale(0.1 -0.1)">
       <use xlink:href="#DejaVuSans-52"/>
       <use xlink:href="#DejaVuSans-24" transform="translate(69.482422 0)"/>
       <use xlink:href="#DejaVuSans-20" transform="translate(133.105469 0)"/>
       <use xlink:href="#DejaVuSans-31" transform="translate(164.892578 0)"/>
       <use xlink:href="#DejaVuSans-30" transform="translate(228.515625 0)"/>
       <use xlink:href="#DejaVuSans-30" transform="translate(292.138672 0)"/>
       <use xlink:href="#DejaVuSans-20" transform="translate(355.761719 0)"/>
       <use xlink:href="#DejaVuSans-62" transform="translate(387.548828 0)"/>
       <use xlink:href="#DejaVuSans-69" transform="translate(451.025391 0)"/>
      </g>
     </g>
    </g>
    <g id="ytick_4">
     <g id="line2d_31">
      <path d="M 74.791562 148.173958 
L 561.041562 148.173958 
" clip-path="url(#pa3d644c262)" style="fill: none; stroke: #e0e0e0; stroke-opacity: 0.5; stroke-width: 0.8; stroke-linecap: square"/>
     </g>
     <g id="line2d_32">
      <g>
       <use xlink:href="#mfe754c88bc" x="74.791562" y="148.173958" style="fill: #333333; stroke: #333333; stroke-width: 0.8"/>
      </g>
     </g>
     <g id="text_16">
      <!-- R$ 150 bi -->
      <g style="fill: #333333" transform="translate(19.910312 151.973177) scale(0.1 -0.1)">
       <use xlink:href="#DejaVuSans-52"/>
       <use xlink:href="#DejaVuSans-24" transform="translate(69.482422 0)"/>
       <use xlink:href="#DejaVuSans-20" transform="translate(133.105469 0)"/>
       <use xlink:href="#DejaVuSans-31" transform="translate(164.892578 0)"/>
       <use xlink:href="#DejaVuSans-35" transform="translate(228.515625 0)"/>
       <use xlink:href="#DejaVuSans-30" transform="translate(292.138672 0)"/>
       <use xlink:href="#DejaVuSans-20" transform="translate(355.761719 0)"/>
       <use xlink:href="#DejaVuSans-62" transform="translate(387.548828 0)"/>
       <use xlink:href="#DejaVuSans-69" transform="translate(451.025391 0)"/>
      </g>
     </g>
    </g>
    <g id="ytick_5">
     <g id="line2d_33">
      <path d="M 74.791562 112.307361 
L 561.041562 112.307361 
" clip-path="url(#pa3d644c262)" style="fill: none; stroke: #e0e0e0; stroke-opacity: 0.5; stroke-width: 0.8; stroke-linecap: square"/>
     </g>
     <g id="line2d_34">
      <g>
       <use xlink:href="#mfe754c88bc" x="74.791562" y="112.307361" style="fill: #333333; stroke: #333333; stroke-width: 0.8"/>
      </g>
     </g>
     <g id="text_17">
      <!-- R$ 200 bi -->
      <g style="fill: #333333" transform="translate(19.910312 116.10658) scale(0.1 -0.1)">
       <use xlink:href="#DejaVuSans-52"/>
       <use xlink:href="#DejaVuSans-24" transform="translate(69.482422 0)"/>
       <use xlink:href="#DejaVuSans-20" transform="translate(133.105469 0)"/>
       <use xlink:href="#DejaVuSans-32" transform="translate(164.892578 0)"/>
       <use xlink:href="#DejaVuSans-30" transform="translate(228.515625 0)"/>
       <use xlink:href="#DejaVuSans-30" transform="translate(292.138672 0)"/>
       <use xlink:href="#DejaVuSans-20" transform="translate(355.761719 0)"/>
       <use xlink:href="#DejaVuSans-62" transform="translate(387.548828 0)"/>
       <use xlink:href="#DejaVuSans-69" transform="translate(451.025391 0)"/>
      </g>
     </g>
    </g>
    <g id="ytick_6">
     <g id="line2d_35">
      <path d="M 74.791562 76.440764 
L 561.041562 76.440764 
" clip-path="url(#pa3d644c262)" style="fill: none; stroke: #e0e0e0; stroke-opacity: 0.5; stroke-width: 0.8; stroke-linecap: square"/>
     </g>
     <g id="line2d_36">
      <g>
       <use xlink:href="#mfe754c88bc" x="74.791562" y="76.440764" style="fill: #333333; stroke: #333333; stroke-width: 0.8"/>
      </g>
     </g>
     <g id="text_18">
      <!-- R$ 250 bi -->
      <g style="fill: #333333" transform="translate(19.910312 80.239983) scale(0.1 -0.1)">
       <use xlink:href="#DejaVuSans-52"/>
       <use xlink:href="#DejaVuSans-24" transform="translate(69.482422 0)"/>
       <use xlink:href="#DejaVuSans-20" transform="translate(133.105469 0)"/>
       <use xlink:href="#DejaVuSans-32" transform="translate(164.892578 0)"/>
       <use xlink:href="#DejaVuSans-35" transform="translate(228.515625 0)"/>
       <use xlink:href="#DejaVuSans-30" transform="translate(292.138672 0)"/>
       <use xlink:href="#DejaVuSans-20" transform="translate(355.761719 0)"/>
       <use xlink:href="#DejaVuSans-62" transform="translate(387.548828 0)"/>
       <use xlink:href="#DejaVuSans-69" transform="translate(451.025391 0)"/>
      </g>
     </g>
    </g>
    <g id="ytick_7">
     <g id="line2d_37">
      <path d="M 74.791562 40.574167 
L 561.041562 40.574167 
" clip-path="url(#pa3d644c262)" style="fill: none; stroke: #e0e0e0; stroke-opacity: 0.5; stroke-width: 0.8; stroke-linecap: square"/>
     </g>
     <g id="line2d_38">
      <g>
       <use xlink:href="#mfe754c88bc" x="74.791562" y="40.574167" style="fill: #333333; stroke: #333333; stroke-width: 0.8"/>
      </g>
     </g>
     <g id="text_19">
      <!-- R$ 300 bi -->
      <g style="fill: #333333" transform="translate(19.910312 44.373385) scale(0.1 -0.1)">
       <use xlink:href="#DejaVuSans-52"/>
       <use xlink:href="#DejaVuSans-24" transform="translate(69.482422 0)"/>
       <use xlink:href="#DejaVuSans-20" transform="translate(133.105469 0)"/>
       <use xlink:href="#DejaVuSans-33" transform="translate(164.892578 0)"/>
       <use xlink:href="#DejaVuSans-30" transform="translate(228.515625 0)"/>
       <use xlink:href="#DejaVuSans-30" transform="translate(292.138672 0)"/>
       <use xlink:href="#DejaVuSans-20" transform="translate(355.761719 0)"/>
       <use xlink:href="#DejaVuSans-62" transform="translate(387.548828 0)"/>
       <use xlink:href="#DejaVuSans-69" transform="translate(451.025391 0)"/>
      </g>
     </g>
    </g>
    <g id="text_20">
     <!-- Faturamento Total -->
     <g style="fill: #333333" transform="translate(14.038594 182.773281) rotate(-90) scale(0.09 -0.09)">
      <defs>
       <path id="DejaVuSans-46" d="M 628 4666 
L 3309 4666 
L 3309 4134 
L 1259 4134 
L 1259 2759 
L 3109 2759 
L 3109 2228 
L 1259 2228 
L 1259 0 
L 628 0 
L 628 4666 
z
" transform="scale(0.015625)"/>
       <path id="DejaVuSans-61" d="M 2194 1759 
Q 1497 1759 1228 1600 
Q 959 1441 959 1056 
Q 959 750 1161 570 
Q 1363 391 1709 391 
Q 2188 391 2477 730 
Q 2766 1069 2766 1631 
L 2766 1759 
L 2194 1759 
z
M 3341 1997 
L 3341 0 
L 2766 0 
L 2766 531 
Q 2569 213 2275 61 
Q 1981 -91 1556 -91 
Q 1019 -91 701 211 
Q 384 513 384 1019 
Q 384 1609 779 1909 
Q 1175 2209 1959 2209 
L 2766 2209 
L 2766 2266 
Q 2766 2663 2505 2880 
Q 2244 3097 1772 3097 
Q 1472 3097 1187 3025 
Q 903 2953 641 2809 
L 641 3341 
Q 956 3463 1253 3523 
Q 1550 3584 1831 3584 
Q 2591 3584 2966 3190 
Q 3341 2797 3341 1997 
z
" transform="scale(0.015625)"/>
       <path id="DejaVuSans-74" d="M 1172 4494 
L 1172 3500 
L 2356 3500 
L 2356 3053 
L 1172 3053 
L 1172 1153 
Q 1172 725 1289 603 
Q 1406 481 1766 481 
L 2356 481 
L 2356 0 
L 1766 0 
Q 1100 0 847 248 
Q 594 497 594 1153 
L 594 3053 
L 172 3053 
L 172 3500 
L 594 3500 
L 594 4494 
L 1172 4494 
z
" transform="scale(0.015625)"/>
       <path id="DejaVuSans-75" d="M 544 1381 
L 544 3500 
L 1119 3500 
L 1119 1403 
Q 1119 906 1312 657 
Q 1506 409 1894 409 
Q 2359 409 2629 706 
Q 2900 1003 2900 1516 
L 2900 3500 
L 3475 3500 
L 3475 0 
L 2900 0 
L 2900 538 
Q 2691 219 2414 64 
Q 2138 -91 1772 -91 
Q 1169 -91 856 284 
Q 544 659 544 1381 
z
M 1991 3584 
L 1991 3584 
z
" transform="scale(0.015625)"/>
       <path id="DejaVuSans-72" d="M 2631 2963 
Q 2534 3019 2420 3045 
Q 2306 3072 2169 3072 
Q 1681 3072 1420 2755 
Q 1159 2438 1159 1844 
L 1159 0 
L 581 0 
L 581 3500 
L 1159 3500 
L 1159 2956 
Q 1341 3275 1631 3429 
Q 1922 3584 2338 3584 
Q 2397 3584 2469 3576 
Q 2541 3569 2628 3553 
L 2631 2963 
z
" transform="scale(0.015625)"/>
       <path id="DejaVuSans-6d" d="M 3328 2828 
Q 3544 3216 3844 3400 
Q 4144 3584 4550 3584 
Q 5097 3584 5394 3201 
Q 5691 2819 5691 2113 
L 5691 0 
L 5113 0 
L 5113 2094 
Q 5113 2597 4934 2840 
Q 4756 3084 4391 3084 
Q 3944 3084 3684 2787 
Q 3425 2491 3425 1978 
L 3425 0 
L 2847 0 
L 2847 2094 
Q 2847 2600 2669 2842 
Q 2491 3084 2119 3084 
Q 1678 3084 1418 2786 
Q 1159 2488 1159 1978 
L 1159 0 
L 581 0 
L 581 3500 
L 1159 3500 
L 1159 2956 
Q 1356 3278 1631 3431 
Q 1906 3584 2284 3584 
Q 2666 3584 2933 3390 
Q 3200 3197 3328 2828 
z
" transform="scale(0.015625)"/>
       <path id="DejaVuSans-65" d="M 3597 1894 
L 3597 1613 
L 953 1613 
Q 991 1019 1311 708 
Q 1631 397 2203 397 
Q 2534 397 2845 478 
Q 3156 559 3463 722 
L 3463 178 
Q 3153 47 2828 -22 
Q 2503 -91 2169 -91 
Q 1331 -91 842 396 
Q 353 884 353 1716 
Q 353 2575 817 3079 
Q 1281 3584 2069 3584 
Q 2775 3584 3186 3129 
Q 3597 2675 3597 1894 
z
M 3022 2063 
Q 3016 2534 2758 2815 
Q 2500 3097 2075 3097 
Q 1594 3097 1305 2825 
Q 1016 2553 972 2059 
L 3022 2063 
z
" transform="scale(0.015625)"/>
       <path id="DejaVuSans-6e" d="M 3513 2113 
L 3513 0 
L 2938 0 
L 2938 2094 
Q 2938 2591 2744 2837 
Q 2550 3084 2163 3084 
Q 1697 3084 1428 2787 
Q 1159 2491 1159 1978 
L 1159 0 
L 581 0 
L 581 3500 
L 1159 3500 
L 1159 2956 
Q 1366 3272 1645 3428 
Q 1925 3584 2291 3584 
Q 2894 3584 3203 3211 
Q 3513 2838 3513 2113 
z
" transform="scale(0.015625)"/>
       <path id="DejaVuSans-6f" d="M 1959 3097 
Q 1497 3097 1228 2736 
Q 959 2375 959 1747 
Q 959 1119 1226 758 
Q 1494 397 1959 397 
Q 2419 397 2687 759 
Q 2956 1122 2956 1747 
Q 2956 2369 2687 2733 
Q 2419 3097 1959 3097 
z
M 1959 3584 
Q 2709 3584 3137 3096 
Q 3566 2609 3566 1747 
Q 3566 888 3137 398 
Q 2709 -91 1959 -91 
Q 1206 -91 779 398 
Q 353 888 353 1747 
Q 353 2609 779 3096 
Q 1206 3584 1959 3584 
z
" transform="scale(0.015625)"/>
       <path id="DejaVuSans-54" d="M -19 4666 
L 3928 4666 
L 3928 4134 
L 2272 4134 
L 2272 0 
L 1638 0 
L 1638 4134 
L -19 4134 
L -19 4666 
z
" transform="scale(0.015625)"/>
       <path id="DejaVuSans-6c" d="M 603 4863 
L 1178 4863 
L 1178 0 
L 603 0 
L 603 4863 
z
" transform="scale(0.015625)"/>
      </defs>
      <use xlink:href="#DejaVuSans-46"/>
      <use xlink:href="#DejaVuSans-61" transform="translate(48.394531 0)"/>
      <use xlink:href="#DejaVuSans-74" transform="translate(109.673828 0)"/>
      <use xlink:href="#DejaVuSans-75" transform="translate(148.882812 0)"/>
      <use xlink:href="#DejaVuSans-72" transform="translate(212.261719 0)"/>
      <use xlink:href="#DejaVuSans-61" transform="translate(253.375 0)"/>
      <use xlink:href="#DejaVuSans-6d" transform="translate(314.654297 0)"/>
      <use xlink:href="#DejaVuSans-65" transform="translate(412.066406 0)"/>
      <use xlink:href="#DejaVuSans-6e" transform="translate(473.589844 0)"/>
      <use xlink:href="#DejaVuSans-74" transform="translate(536.96875 0)"/>
      <use xlink:href="#DejaVuSans-6f" transform="translate(576.177734 0)"/>
      <use xlink:href="#DejaVuSans-20" transform="translate(637.359375 0)"/>
      <use xlink:href="#DejaVuSans-54" transform="translate(669.146484 0)"/>
      <use xlink:href="#DejaVuSans-6f" transform="translate(713.230469 0)"/>
      <use xlink:href="#DejaVuSans-74" transform="translate(774.412109 0)"/>
      <use xlink:href="#DejaVuSans-61" transform="translate(813.621094 0)"/>
      <use xlink:href="#DejaVuSans-6c" transform="translate(874.900391 0)"/>
     </g>
    </g>
   </g>
   <g id="patch_15">
    <path d="M 74.791562 255.77375 
L 74.791562 28.53375 
" style="fill: none; stroke: #e0e0e0; stroke-width: 0.8; stroke-linejoin: miter; stroke-linecap: square"/>
   </g>
   <g id="patch_16">
    <path d="M 74.791562 255.77375 
L 561.041562 255.77375 
" style="fill: none; stroke: #e0e0e0; stroke-width: 0.8; stroke-linejoin: miter; stroke-linecap: square"/>
   </g>
   <g id="text_21">
    <!-- R$ 127.0 bi -->
    <g style="fill: #333333" transform="translate(85.357295 160.344212) scale(0.08 -0.08)">
     <defs>
      <path id="DejaVuSans-2e" d="M 684 794 
L 1344 794 
L 1344 0 
L 684 0 
L 684 794 
z
" transform="scale(0.015625)"/>
     </defs>
     <use xlink:href="#DejaVuSans-52"/>
     <use xlink:href="#DejaVuSans-24" transform="translate(69.482422 0)"/>
     <use xlink:href="#DejaVuSans-20" transform="translate(133.105469 0)"/>
     <use xlink:href="#DejaVuSans-31" transform="translate(164.892578 0)"/>
     <use xlink:href="#DejaVuSans-32" transform="translate(228.515625 0)"/>
     <use xlink:href="#DejaVuSans-37" transform="translate(292.138672 0)"/>
     <use xlink:href="#DejaVuSans-2e" transform="translate(355.761719 0)"/>
     <use xlink:href="#DejaVuSans-30" transform="translate(387.548828 0)"/>
     <use xlink:href="#DejaVuSans-20" transform="translate(451.171875 0)"/>
     <use xlink:href="#DejaVuSans-62" transform="translate(482.958984 0)"/>
     <use xlink:href="#DejaVuSans-69" transform="translate(546.435547 0)"/>
    </g>
   </g>
   <g id="text_22">
    <!-- R$ 139.6 bi -->
    <g style="fill: #333333" transform="translate(123.464662 151.310851) scale(0.08 -0.08)">
     <use xlink:href="#DejaVuSans-52"/>
     <use xlink:href="#DejaVuSans-24" transform="translate(69.482422 0)"/>
     <use xlink:href="#DejaVuSans-20" transform="translate(133.105469 0)"/>
     <use xlink:href="#DejaVuSans-31" transform="translate(164.892578 0)"/>
     <use xlink:href="#DejaVuSans-33" transform="translate(228.515625 0)"/>
     <use xlink:href="#DejaVuSans-39" transform="translate(292.138672 0)"/>
     <use xlink:href="#DejaVuSans-2e" transform="translate(355.761719 0)"/>
     <use xlink:href="#DejaVuSans-36" transform="translate(387.548828 0)"/>
     <use xlink:href="#DejaVuSans-20" transform="translate(451.171875 0)"/>
     <use xlink:href="#DejaVuSans-62" transform="translate(482.958984 0)"/>
     <use xlink:href="#DejaVuSans-69" transform="translate(546.435547 0)"/>
    </g>
   </g>
   <g id="text_23">
    <!-- R$ 151.2 bi -->
    <g style="fill: #333333" transform="translate(161.572029 142.951064) scale(0.08 -0.08)">
     <use xlink:href="#DejaVuSans-52"/>
     <use xlink:href="#DejaVuSans-24" transform="translate(69.482422 0)"/>
     <use xlink:href="#DejaVuSans-20" transform="translate(133.105469 0)"/>
     <use xlink:href="#DejaVuSans-31" transform="translate(164.892578 0)"/>
     <use xlink:href="#DejaVuSans-35" transform="translate(228.515625 0)"/>
     <use xlink:href="#DejaVuSans-31" transform="translate(292.138672 0)"/>
     <use xlink:href="#DejaVuSans-2e" transform="translate(355.761719 0)"/>
     <use xlink:href="#DejaVuSans-32" transform="translate(387.548828 0)"/>
     <use xlink:href="#DejaVuSans-20" transform="translate(451.171875 0)"/>
     <use xlink:href="#DejaVuSans-62" transform="translate(482.958984 0)"/>
     <use xlink:href="#DejaVuSans-69" transform="translate(546.435547 0)"/>
    </g>
   </g>
   <g id="text_24">
    <!-- R$ 163.3 bi -->
    <g style="fill: #333333" transform="translate(199.679396 134.291433) scale(0.08 -0.08)">
     <use xlink:href="#DejaVuSans-52"/>
     <use xlink:href="#DejaVuSans-24" transform="translate(69.482422 0)"/>
     <use xlink:href="#DejaVuSans-20" transform="translate(133.105469 0)"/>
     <use xlink:href="#DejaVuSans-31" transform="translate(164.892578 0)"/>
     <use xlink:href="#DejaVuSans-36" transform="translate(228.515625 0)"/>
     <use xlink:href="#DejaVuSans-33" transform="translate(292.138672 0)"/>
     <use xlink:href="#DejaVuSans-2e" transform="translate(355.761719 0)"/>
     <use xlink:href="#DejaVuSans-33" transform="translate(387.548828 0)"/>
     <use xlink:href="#DejaVuSans-20" transform="translate(451.171875 0)"/>
     <use xlink:href="#DejaVuSans-62" transform="translate(482.958984 0)"/>
     <use xlink:href="#DejaVuSans-69" transform="translate(546.435547 0)"/>
    </g>
   </g>
   <g id="text_25">
    <!-- R$ 174.8 bi -->
    <g style="fill: #333333" transform="translate(237.786762 126.0249) scale(0.08 -0.08)">
     <use xlink:href="#DejaVuSans-52"/>
     <use xlink:href="#DejaVuSans-24" transform="translate(69.482422 0)"/>
     <use xlink:href="#DejaVuSans-20" transform="translate(133.105469 0)"/>
     <use xlink:href="#DejaVuSans-31" transform="translate(164.892578 0)"/>
     <use xlink:href="#DejaVuSans-37" transform="translate(228.515625 0)"/>
     <use xlink:href="#DejaVuSans-34" transform="translate(292.138672 0)"/>
     <use xlink:href="#DejaVuSans-2e" transform="translate(355.761719 0)"/>
     <use xlink:href="#DejaVuSans-38" transform="translate(387.548828 0)"/>
     <use xlink:href="#DejaVuSans-20" transform="translate(451.171875 0)"/>
     <use xlink:href="#DejaVuSans-62" transform="translate(482.958984 0)"/>
     <use xlink:href="#DejaVuSans-69" transform="translate(546.435547 0)"/>
    </g>
   </g>
   <g id="text_26">
    <!-- R$ 186.8 bi -->
    <g style="fill: #333333" transform="translate(275.894129 117.480042) scale(0.08 -0.08)">
     <use xlink:href="#DejaVuSans-52"/>
     <use xlink:href="#DejaVuSans-24" transform="translate(69.482422 0)"/>
     <use xlink:href="#DejaVuSans-20" transform="translate(133.105469 0)"/>
     <use xlink:href="#DejaVuSans-31" transform="translate(164.892578 0)"/>
     <use xlink:href="#DejaVuSans-38" transform="translate(228.515625 0)"/>
     <use xlink:href="#DejaVuSans-36" transform="translate(292.138672 0)"/>
     <use xlink:href="#DejaVuSans-2e" transform="translate(355.761719 0)"/>
     <use xlink:href="#DejaVuSans-38" transform="translate(387.548828 0)"/>
     <use xlink:href="#DejaVuSans-20" transform="translate(451.171875 0)"/>
     <use xlink:href="#DejaVuSans-62" transform="translate(482.958984 0)"/>
     <use xlink:href="#DejaVuSans-69" transform="translate(546.435547 0)"/>
    </g>
   </g>
   <g id="text_27">
    <!-- R$ 167.2 bi -->
    <g style="fill: #333333" transform="translate(314.001496 131.516793) scale(0.08 -0.08)">
     <use xlink:href="#DejaVuSans-52"/>
     <use xlink:href="#DejaVuSans-24" transform="translate(69.482422 0)"/>
     <use xlink:href="#DejaVuSans-20" transform="translate(133.105469 0)"/>
     <use xlink:href="#DejaVuSans-31" transform="translate(164.892578 0)"/>
     <use xlink:href="#DejaVuSans-36" transform="translate(228.515625 0)"/>
     <use xlink:href="#DejaVuSans-37" transform="translate(292.138672 0)"/>
     <use xlink:href="#DejaVuSans-2e" transform="translate(355.761719 0)"/>
     <use xlink:href="#DejaVuSans-32" transform="translate(387.548828 0)"/>
     <use xlink:href="#DejaVuSans-20" transform="translate(451.171875 0)"/>
     <use xlink:href="#DejaVuSans-62" transform="translate(482.958984 0)"/>
     <use xlink:href="#DejaVuSans-69" transform="translate(546.435547 0)"/>
    </g>
   </g>
   <g id="text_28">
    <!-- R$ 185.1 bi -->
    <g style="fill: #333333" transform="translate(352.108863 118.690181) scale(0.08 -0.08)">
     <use xlink:href="#DejaVuSans-52"/>
     <use xlink:href="#DejaVuSans-24" transform="translate(69.482422 0)"/>
     <use xlink:href="#DejaVuSans-20" transform="translate(133.105469 0)"/>
     <use xlink:href="#DejaVuSans-31" transform="translate(164.892578 0)"/>
     <use xlink:href="#DejaVuSans-38" transform="translate(228.515625 0)"/>
     <use xlink:href="#DejaVuSans-35" transform="translate(292.138672 0)"/>
     <use xlink:href="#DejaVuSans-2e" transform="translate(355.761719 0)"/>
     <use xlink:href="#DejaVuSans-31" transform="translate(387.548828 0)"/>
     <use xlink:href="#DejaVuSans-20" transform="translate(451.171875 0)"/>
     <use xlink:href="#DejaVuSans-62" transform="translate(482.958984 0)"/>
     <use xlink:href="#DejaVuSans-69" transform="translate(546.435547 0)"/>
    </g>
   </g>
   <g id="text_29">
    <!-- R$ 211.5 bi -->
    <g style="fill: #333333" transform="translate(390.216229 99.738271) scale(0.08 -0.08)">
     <use xlink:href="#DejaVuSans-52"/>
     <use xlink:href="#DejaVuSans-24" transform="translate(69.482422 0)"/>
     <use xlink:href="#DejaVuSans-20" transform="translate(133.105469 0)"/>
     <use xlink:href="#DejaVuSans-32" transform="translate(164.892578 0)"/>
     <use xlink:href="#DejaVuSans-31" transform="translate(228.515625 0)"/>
     <use xlink:href="#DejaVuSans-31" transform="translate(292.138672 0)"/>
     <use xlink:href="#DejaVuSans-2e" transform="translate(355.761719 0)"/>
     <use xlink:href="#DejaVuSans-35" transform="translate(387.548828 0)"/>
     <use xlink:href="#DejaVuSans-20" transform="translate(451.171875 0)"/>
     <use xlink:href="#DejaVuSans-62" transform="translate(482.958984 0)"/>
     <use xlink:href="#DejaVuSans-69" transform="translate(546.435547 0)"/>
    </g>
   </g>
   <g id="text_30">
    <!-- R$ 240.7 bi -->
    <g style="fill: #333333" transform="translate(428.323596 78.810829) scale(0.08 -0.08)">
     <use xlink:href="#DejaVuSans-52"/>
     <use xlink:href="#DejaVuSans-24" transform="translate(69.482422 0)"/>
     <use xlink:href="#DejaVuSans-20" transform="translate(133.105469 0)"/>
     <use xlink:href="#DejaVuSans-32" transform="translate(164.892578 0)"/>
     <use xlink:href="#DejaVuSans-34" transform="translate(228.515625 0)"/>
     <use xlink:href="#DejaVuSans-30" transform="translate(292.138672 0)"/>
     <use xlink:href="#DejaVuSans-2e" transform="translate(355.761719 0)"/>
     <use xlink:href="#DejaVuSans-37" transform="translate(387.548828 0)"/>
     <use xlink:href="#DejaVuSans-20" transform="translate(451.171875 0)"/>
     <use xlink:href="#DejaVuSans-62" transform="translate(482.958984 0)"/>
     <use xlink:href="#DejaVuSans-69" transform="translate(546.435547 0)"/>
    </g>
   </g>
   <g id="text_31">
    <!-- R$ 264.7 bi -->
    <g style="fill: #333333" transform="translate(466.430963 61.548235) scale(0.08 -0.08)">
     <use xlink:href="#DejaVuSans-52"/>
     <use xlink:href="#DejaVuSans-24" transform="translate(69.482422 0)"/>
     <use xlink:href="#DejaVuSans-20" transform="translate(133.105469 0)"/>
     <use xlink:href="#DejaVuSans-32" transform="translate(164.892578 0)"/>
     <use xlink:href="#DejaVuSans-36" transform="translate(228.515625 0)"/>
     <use xlink:href="#DejaVuSans-34" transform="translate(292.138672 0)"/>
     <use xlink:href="#DejaVuSans-2e" transform="translate(355.761719 0)"/>
     <use xlink:href="#DejaVuSans-37" transform="translate(387.548828 0)"/>
     <use xlink:href="#DejaVuSans-20" transform="translate(451.171875 0)"/>
     <use xlink:href="#DejaVuSans-62" transform="translate(482.958984 0)"/>
     <use xlink:href="#DejaVuSans-69" transform="translate(546.435547 0)"/>
    </g>
   </g>
   <g id="text_32">
    <!-- R$ 301.7 bi -->
    <g style="fill: #333333" transform="translate(504.53833 35.026321) scale(0.08 -0.08)">
     <use xlink:href="#DejaVuSans-52"/>
     <use xlink:href="#DejaVuSans-24" transform="translate(69.482422 0)"/>
     <use xlink:href="#DejaVuSans-20" transform="translate(133.105469 0)"/>
     <use xlink:href="#DejaVuSans-33" transform="translate(164.892578 0)"/>
     <use xlink:href="#DejaVuSans-30" transform="translate(228.515625 0)"/>
     <use xlink:href="#DejaVuSans-31" transform="translate(292.138672 0)"/>
     <use xlink:href="#DejaVuSans-2e" transform="translate(355.761719 0)"/>
     <use xlink:href="#DejaVuSans-37" transform="translate(387.548828 0)"/>
     <use xlink:href="#DejaVuSans-20" transform="translate(451.171875 0)"/>
     <use xlink:href="#DejaVuSans-62" transform="translate(482.958984 0)"/>
     <use xlink:href="#DejaVuSans-69" transform="translate(546.435547 0)"/>
    </g>
   </g>
   <g id="text_33">
    <!-- Faturamento total vs taxa básica de juros -->
    <g style="fill: #888888" transform="translate(224.400234 23.98895) scale(0.09 -0.09)">
     <defs>
      <path id="DejaVuSans-76" d="M 191 3500 
L 800 3500 
L 1894 563 
L 2988 3500 
L 3597 3500 
L 2284 0 
L 1503 0 
L 191 3500 
z
" transform="scale(0.015625)"/>
      <path id="DejaVuSans-73" d="M 2834 3397 
L 2834 2853 
Q 2591 2978 2328 3040 
Q 2066 3103 1784 3103 
Q 1356 3103 1142 2972 
Q 928 2841 928 2578 
Q 928 2378 1081 2264 
Q 1234 2150 1697 2047 
L 1894 2003 
Q 2506 1872 2764 1633 
Q 3022 1394 3022 966 
Q 3022 478 2636 193 
Q 2250 -91 1575 -91 
Q 1294 -91 989 -36 
Q 684 19 347 128 
L 347 722 
Q 666 556 975 473 
Q 1284 391 1588 391 
Q 1994 391 2212 530 
Q 2431 669 2431 922 
Q 2431 1156 2273 1281 
Q 2116 1406 1581 1522 
L 1381 1569 
Q 847 1681 609 1914 
Q 372 2147 372 2553 
Q 372 3047 722 3315 
Q 1072 3584 1716 3584 
Q 2034 3584 2315 3537 
Q 2597 3491 2834 3397 
z
" transform="scale(0.015625)"/>
      <path id="DejaVuSans-78" d="M 3513 3500 
L 2247 1797 
L 3578 0 
L 2900 0 
L 1881 1375 
L 863 0 
L 184 0 
L 1544 1831 
L 300 3500 
L 978 3500 
L 1906 2253 
L 2834 3500 
L 3513 3500 
z
" transform="scale(0.015625)"/>
      <path id="DejaVuSans-e1" d="M 2194 1759 
Q 1497 1759 1228 1600 
Q 959 1441 959 1056 
Q 959 750 1161 570 
Q 1363 391 1709 391 
Q 2188 391 2477 730 
Q 2766 1069 2766 1631 
L 2766 1759 
L 2194 1759 
z
M 3341 1997 
L 3341 0 
L 2766 0 
L 2766 531 
Q 2569 213 2275 61 
Q 1981 -91 1556 -91 
Q 1019 -91 701 211 
Q 384 513 384 1019 
Q 384 1609 779 1909 
Q 1175 2209 1959 2209 
L 2766 2209 
L 2766 2266 
Q 2766 2663 2505 2880 
Q 2244 3097 1772 3097 
Q 1472 3097 1187 3025 
Q 903 2953 641 2809 
L 641 3341 
Q 956 3463 1253 3523 
Q 1550 3584 1831 3584 
Q 2591 3584 2966 3190 
Q 3341 2797 3341 1997 
z
M 2290 5119 
L 2912 5119 
L 1894 3944 
L 1415 3944 
L 2290 5119 
z
" transform="scale(0.015625)"/>
      <path id="DejaVuSans-63" d="M 3122 3366 
L 3122 2828 
Q 2878 2963 2633 3030 
Q 2388 3097 2138 3097 
Q 1578 3097 1268 2742 
Q 959 2388 959 1747 
Q 959 1106 1268 751 
Q 1578 397 2138 397 
Q 2388 397 2633 464 
Q 2878 531 3122 666 
L 3122 134 
Q 2881 22 2623 -34 
Q 2366 -91 2075 -91 
Q 1284 -91 818 406 
Q 353 903 353 1747 
Q 353 2603 823 3093 
Q 1294 3584 2113 3584 
Q 2378 3584 2631 3529 
Q 2884 3475 3122 3366 
z
" transform="scale(0.015625)"/>
      <path id="DejaVuSans-64" d="M 2906 2969 
L 2906 4863 
L 3481 4863 
L 3481 0 
L 2906 0 
L 2906 525 
Q 2725 213 2448 61 
Q 2172 -91 1784 -91 
Q 1150 -91 751 415 
Q 353 922 353 1747 
Q 353 2572 751 3078 
Q 1150 3584 1784 3584 
Q 2172 3584 2448 3432 
Q 2725 3281 2906 2969 
z
M 947 1747 
Q 947 1113 1208 752 
Q 1469 391 1925 391 
Q 2381 391 2643 752 
Q 2906 1113 2906 1747 
Q 2906 2381 2643 2742 
Q 2381 3103 1925 3103 
Q 1469 3103 1208 2742 
Q 947 2381 947 1747 
z
" transform="scale(0.015625)"/>
      <path id="DejaVuSans-6a" d="M 603 3500 
L 1178 3500 
L 1178 -63 
Q 1178 -731 923 -1031 
Q 669 -1331 103 -1331 
L -116 -1331 
L -116 -844 
L 38 -844 
Q 366 -844 484 -692 
Q 603 -541 603 -63 
L 603 3500 
z
M 603 4863 
L 1178 4863 
L 1178 4134 
L 603 4134 
L 603 4863 
z
" transform="scale(0.015625)"/>
     </defs>
     <use xlink:href="#DejaVuSans-46"/>
     <use xlink:href="#DejaVuSans-61" transform="translate(48.394531 0)"/>
     <use xlink:href="#DejaVuSans-74" transform="translate(109.673828 0)"/>
     <use xlink:href="#DejaVuSans-75" transform="translate(148.882812 0)"/>
     <use xlink:href="#DejaVuSans-72" transform="translate(212.261719 0)"/>
     <use xlink:href="#DejaVuSans-61" transform="translate(253.375 0)"/>
     <use xlink:href="#DejaVuSans-6d" transform="translate(314.654297 0)"/>
     <use xlink:href="#DejaVuSans-65" transform="translate(412.066406 0)"/>
     <use xlink:href="#DejaVuSans-6e" transform="translate(473.589844 0)"/>
     <use xlink:href="#DejaVuSans-74" transform="translate(536.96875 0)"/>
     <use xlink:href="#DejaVuSans-6f" transform="translate(576.177734 0)"/>
     <use xlink:href="#DejaVuSans-20" transform="translate(637.359375 0)"/>
     <use xlink:href="#DejaVuSans-74" transform="translate(669.146484 0)"/>
     <use xlink:href="#DejaVuSans-6f" transform="translate(708.355469 0)"/>
     <use xlink:href="#DejaVuSans-74" transform="translate(769.537109 0)"/>
     <use xlink:href="#DejaVuSans-61" transform="translate(808.746094 0)"/>
     <use xlink:href="#DejaVuSans-6c" transform="translate(870.025391 0)"/>
     <use xlink:href="#DejaVuSans-20" transform="translate(897.808594 0)"/>
     <use xlink:href="#DejaVuSans-76" transform="translate(929.595703 0)"/>
     <use xlink:href="#DejaVuSans-73" transform="translate(988.775391 0)"/>
     <use xlink:href="#DejaVuSans-20" transform="translate(1040.875 0)"/>
     <use xlink:href="#DejaVuSans-74" transform="translate(1072.662109 0)"/>
     <use xlink:href="#DejaVuSans-61" transform="translate(1111.871094 0)"/>
     <use xlink:href="#DejaVuSans-78" transform="translate(1173.150391 0)"/>
     <use xlink:href="#DejaVuSans-61" transform="translate(1232.330078 0)"/>
     <use xlink:href="#DejaVuSans-20" transform="translate(1293.609375 0)"/>
     <use xlink:href="#DejaVuSans-62" transform="translate(1325.396484 0)"/>
     <use xlink:href="#DejaVuSans-e1" transform="translate(1388.873047 0)"/>
     <use xlink:href="#DejaVuSans-73" transform="translate(1450.152344 0)"/>
     <use xlink:href="#DejaVuSans-69" transform="translate(1502.251953 0)"/>
     <use xlink:href="#DejaVuSans-63" transform="translate(1530.035156 0)"/>
     <use xlink:href="#DejaVuSans-61" transform="translate(1585.015625 0)"/>
     <use xlink:href="#DejaVuSans-20" transform="translate(1646.294922 0)"/>
     <use xlink:href="#DejaVuSans-64" transform="translate(1678.082031 0)"/>
     <use xlink:href="#DejaVuSans-65" transform="translate(1741.558594 0)"/>
     <use xlink:href="#DejaVuSans-20" transform="translate(1803.082031 0)"/>
     <use xlink:href="#DejaVuSans-6a" transform="translate(1834.869141 0)"/>
     <use xlink:href="#DejaVuSans-75" transform="translate(1862.652344 0)"/>
     <use xlink:href="#DejaVuSans-72" transform="translate(1926.03125 0)"/>
     <use xlink:href="#DejaVuSans-6f" transform="translate(1964.894531 0)"/>
     <use xlink:href="#DejaVuSans-73" transform="translate(2026.076172 0)"/>
    </g>
   </g>
   <g id="text_34">
    <!-- Franchising Fatura R$ 301,7 Bi com Pressão da Selic -->
    <g style="fill: #333333" transform="translate(140.712187 16.53375) scale(0.12 -0.12)">
     <defs>
      <path id="DejaVuSans-Bold-46" d="M 588 4666 
L 3834 4666 
L 3834 3756 
L 1791 3756 
L 1791 2888 
L 3713 2888 
L 3713 1978 
L 1791 1978 
L 1791 0 
L 588 0 
L 588 4666 
z
" transform="scale(0.015625)"/>
      <path id="DejaVuSans-Bold-72" d="M 3138 2547 
Q 2991 2616 2845 2648 
Q 2700 2681 2553 2681 
Q 2122 2681 1889 2404 
Q 1656 2128 1656 1613 
L 1656 0 
L 538 0 
L 538 3500 
L 1656 3500 
L 1656 2925 
Q 1872 3269 2151 3426 
Q 2431 3584 2822 3584 
Q 2878 3584 2943 3579 
Q 3009 3575 3134 3559 
L 3138 2547 
z
" transform="scale(0.015625)"/>
      <path id="DejaVuSans-Bold-61" d="M 2106 1575 
Q 1756 1575 1579 1456 
Q 1403 1338 1403 1106 
Q 1403 894 1545 773 
Q 1688 653 1941 653 
Q 2256 653 2472 879 
Q 2688 1106 2688 1447 
L 2688 1575 
L 2106 1575 
z
M 3816 1997 
L 3816 0 
L 2688 0 
L 2688 519 
Q 2463 200 2181 54 
Q 1900 -91 1497 -91 
Q 953 -91 614 226 
Q 275 544 275 1050 
Q 275 1666 698 1953 
Q 1122 2241 2028 2241 
L 2688 2241 
L 2688 2328 
Q 2688 2594 2478 2717 
Q 2269 2841 1825 2841 
Q 1466 2841 1156 2769 
Q 847 2697 581 2553 
L 581 3406 
Q 941 3494 1303 3539 
Q 1666 3584 2028 3584 
Q 2975 3584 3395 3211 
Q 3816 2838 3816 1997 
z
" transform="scale(0.015625)"/>
      <path id="DejaVuSans-Bold-6e" d="M 4056 2131 
L 4056 0 
L 2931 0 
L 2931 347 
L 2931 1631 
Q 2931 2084 2911 2256 
Q 2891 2428 2841 2509 
Q 2775 2619 2662 2680 
Q 2550 2741 2406 2741 
Q 2056 2741 1856 2470 
Q 1656 2200 1656 1722 
L 1656 0 
L 538 0 
L 538 3500 
L 1656 3500 
L 1656 2988 
Q 1909 3294 2193 3439 
Q 2478 3584 2822 3584 
Q 3428 3584 3742 3212 
Q 4056 2841 4056 2131 
z
" transform="scale(0.015625)"/>
      <path id="DejaVuSans-Bold-63" d="M 3366 3391 
L 3366 2478 
Q 3138 2634 2908 2709 
Q 2678 2784 2431 2784 
Q 1963 2784 1702 2511 
Q 1441 2238 1441 1747 
Q 1441 1256 1702 982 
Q 1963 709 2431 709 
Q 2694 709 2930 787 
Q 3166 866 3366 1019 
L 3366 103 
Q 3103 6 2833 -42 
Q 2563 -91 2291 -91 
Q 1344 -91 809 395 
Q 275 881 275 1747 
Q 275 2613 809 3098 
Q 1344 3584 2291 3584 
Q 2566 3584 2833 3536 
Q 3100 3488 3366 3391 
z
" transform="scale(0.015625)"/>
      <path id="DejaVuSans-Bold-68" d="M 4056 2131 
L 4056 0 
L 2931 0 
L 2931 347 
L 2931 1625 
Q 2931 2084 2911 2256 
Q 2891 2428 2841 2509 
Q 2775 2619 2662 2680 
Q 2550 2741 2406 2741 
Q 2056 2741 1856 2470 
Q 1656 2200 1656 1722 
L 1656 0 
L 538 0 
L 538 4863 
L 1656 4863 
L 1656 2988 
Q 1909 3294 2193 3439 
Q 2478 3584 2822 3584 
Q 3428 3584 3742 3212 
Q 4056 2841 4056 2131 
z
" transform="scale(0.015625)"/>
      <path id="DejaVuSans-Bold-69" d="M 538 3500 
L 1656 3500 
L 1656 0 
L 538 0 
L 538 3500 
z
M 538 4863 
L 1656 4863 
L 1656 3950 
L 538 3950 
L 538 4863 
z
" transform="scale(0.015625)"/>
      <path id="DejaVuSans-Bold-73" d="M 3272 3391 
L 3272 2541 
Q 2913 2691 2578 2766 
Q 2244 2841 1947 2841 
Q 1628 2841 1473 2761 
Q 1319 2681 1319 2516 
Q 1319 2381 1436 2309 
Q 1553 2238 1856 2203 
L 2053 2175 
Q 2913 2066 3209 1816 
Q 3506 1566 3506 1031 
Q 3506 472 3093 190 
Q 2681 -91 1863 -91 
Q 1516 -91 1145 -36 
Q 775 19 384 128 
L 384 978 
Q 719 816 1070 734 
Q 1422 653 1784 653 
Q 2113 653 2278 743 
Q 2444 834 2444 1013 
Q 2444 1163 2330 1236 
Q 2216 1309 1875 1350 
L 1678 1375 
Q 931 1469 631 1722 
Q 331 1975 331 2491 
Q 331 3047 712 3315 
Q 1094 3584 1881 3584 
Q 2191 3584 2531 3537 
Q 2872 3491 3272 3391 
z
" transform="scale(0.015625)"/>
      <path id="DejaVuSans-Bold-67" d="M 2919 594 
Q 2688 288 2409 144 
Q 2131 0 1766 0 
Q 1125 0 706 504 
Q 288 1009 288 1791 
Q 288 2575 706 3076 
Q 1125 3578 1766 3578 
Q 2131 3578 2409 3434 
Q 2688 3291 2919 2981 
L 2919 3500 
L 4044 3500 
L 4044 353 
Q 4044 -491 3511 -936 
Q 2978 -1381 1966 -1381 
Q 1638 -1381 1331 -1331 
Q 1025 -1281 716 -1178 
L 716 -306 
Q 1009 -475 1290 -558 
Q 1572 -641 1856 -641 
Q 2406 -641 2662 -400 
Q 2919 -159 2919 353 
L 2919 594 
z
M 2181 2772 
Q 1834 2772 1640 2515 
Q 1447 2259 1447 1791 
Q 1447 1309 1634 1061 
Q 1822 813 2181 813 
Q 2531 813 2725 1069 
Q 2919 1325 2919 1791 
Q 2919 2259 2725 2515 
Q 2531 2772 2181 2772 
z
" transform="scale(0.015625)"/>
      <path id="DejaVuSans-Bold-20" transform="scale(0.015625)"/>
      <path id="DejaVuSans-Bold-74" d="M 1759 4494 
L 1759 3500 
L 2913 3500 
L 2913 2700 
L 1759 2700 
L 1759 1216 
Q 1759 972 1856 886 
Q 1953 800 2241 800 
L 2816 800 
L 2816 0 
L 1856 0 
Q 1194 0 917 276 
Q 641 553 641 1216 
L 641 2700 
L 84 2700 
L 84 3500 
L 641 3500 
L 641 4494 
L 1759 4494 
z
" transform="scale(0.015625)"/>
      <path id="DejaVuSans-Bold-75" d="M 500 1363 
L 500 3500 
L 1625 3500 
L 1625 3150 
Q 1625 2866 1622 2436 
Q 1619 2006 1619 1863 
Q 1619 1441 1641 1255 
Q 1663 1069 1716 984 
Q 1784 875 1895 815 
Q 2006 756 2150 756 
Q 2500 756 2700 1025 
Q 2900 1294 2900 1772 
L 2900 3500 
L 4019 3500 
L 4019 0 
L 2900 0 
L 2900 506 
Q 2647 200 2364 54 
Q 2081 -91 1741 -91 
Q 1134 -91 817 281 
Q 500 653 500 1363 
z
" transform="scale(0.015625)"/>
      <path id="DejaVuSans-Bold-52" d="M 2297 2597 
Q 2675 2597 2839 2737 
Q 3003 2878 3003 3200 
Q 3003 3519 2839 3656 
Q 2675 3794 2297 3794 
L 1791 3794 
L 1791 2597 
L 2297 2597 
z
M 1791 1766 
L 1791 0 
L 588 0 
L 588 4666 
L 2425 4666 
Q 3347 4666 3776 4356 
Q 4206 4047 4206 3378 
Q 4206 2916 3982 2619 
Q 3759 2322 3309 2181 
Q 3556 2125 3751 1926 
Q 3947 1728 4147 1325 
L 4800 0 
L 3519 0 
L 2950 1159 
Q 2778 1509 2601 1637 
Q 2425 1766 2131 1766 
L 1791 1766 
z
" transform="scale(0.015625)"/>
      <path id="DejaVuSans-Bold-24" d="M 2484 -941 
L 1978 -941 
L 1975 0 
Q 1584 16 1218 87 
Q 853 159 506 288 
L 506 1106 
Q 866 922 1233 823 
Q 1600 725 1978 713 
L 1978 1684 
L 1875 1703 
Q 1128 1834 814 2115 
Q 500 2397 500 2925 
Q 500 3484 883 3798 
Q 1266 4113 1975 4141 
L 1978 4863 
L 2484 4863 
L 2484 4153 
Q 2797 4128 3109 4075 
Q 3422 4022 3738 3938 
L 3738 3144 
Q 3425 3275 3112 3348 
Q 2800 3422 2484 3438 
L 2484 2541 
L 2584 2522 
Q 3378 2397 3698 2105 
Q 4019 1813 4019 1241 
Q 4019 666 3637 358 
Q 3256 50 2484 6 
L 2484 -941 
z
M 1978 2613 
L 1978 3428 
Q 1756 3416 1623 3308 
Q 1491 3200 1491 3034 
Q 1491 2850 1612 2745 
Q 1734 2641 1978 2613 
z
M 2484 1594 
L 2484 725 
Q 2756 728 2892 831 
Q 3028 934 3028 1141 
Q 3028 1353 2903 1458 
Q 2778 1563 2484 1594 
z
" transform="scale(0.015625)"/>
      <path id="DejaVuSans-Bold-33" d="M 2981 2516 
Q 3453 2394 3698 2092 
Q 3944 1791 3944 1325 
Q 3944 631 3412 270 
Q 2881 -91 1863 -91 
Q 1503 -91 1142 -33 
Q 781 25 428 141 
L 428 1069 
Q 766 900 1098 814 
Q 1431 728 1753 728 
Q 2231 728 2486 893 
Q 2741 1059 2741 1369 
Q 2741 1688 2480 1852 
Q 2219 2016 1709 2016 
L 1228 2016 
L 1228 2791 
L 1734 2791 
Q 2188 2791 2409 2933 
Q 2631 3075 2631 3366 
Q 2631 3634 2415 3781 
Q 2200 3928 1806 3928 
Q 1516 3928 1219 3862 
Q 922 3797 628 3669 
L 628 4550 
Q 984 4650 1334 4700 
Q 1684 4750 2022 4750 
Q 2931 4750 3382 4451 
Q 3834 4153 3834 3553 
Q 3834 3144 3618 2883 
Q 3403 2622 2981 2516 
z
" transform="scale(0.015625)"/>
      <path id="DejaVuSans-Bold-30" d="M 2944 2338 
Q 2944 3213 2780 3570 
Q 2616 3928 2228 3928 
Q 1841 3928 1675 3570 
Q 1509 3213 1509 2338 
Q 1509 1453 1675 1090 
Q 1841 728 2228 728 
Q 2613 728 2778 1090 
Q 2944 1453 2944 2338 
z
M 4147 2328 
Q 4147 1169 3647 539 
Q 3147 -91 2228 -91 
Q 1306 -91 806 539 
Q 306 1169 306 2328 
Q 306 3491 806 4120 
Q 1306 4750 2228 4750 
Q 3147 4750 3647 4120 
Q 4147 3491 4147 2328 
z
" transform="scale(0.015625)"/>
      <path id="DejaVuSans-Bold-31" d="M 750 831 
L 1813 831 
L 1813 3847 
L 722 3622 
L 722 4441 
L 1806 4666 
L 2950 4666 
L 2950 831 
L 4013 831 
L 4013 0 
L 750 0 
L 750 831 
z
" transform="scale(0.015625)"/>
      <path id="DejaVuSans-Bold-2c" d="M 653 1209 
L 1778 1209 
L 1778 256 
L 1006 -909 
L 341 -909 
L 653 256 
L 653 1209 
z
" transform="scale(0.015625)"/>
      <path id="DejaVuSans-Bold-37" d="M 428 4666 
L 3944 4666 
L 3944 3988 
L 2125 0 
L 953 0 
L 2675 3781 
L 428 3781 
L 428 4666 
z
" transform="scale(0.015625)"/>
      <path id="DejaVuSans-Bold-42" d="M 2456 2859 
Q 2741 2859 2887 2984 
Q 3034 3109 3034 3353 
Q 3034 3594 2887 3720 
Q 2741 3847 2456 3847 
L 1791 3847 
L 1791 2859 
L 2456 2859 
z
M 2497 819 
Q 2859 819 3042 972 
Q 3225 1125 3225 1434 
Q 3225 1738 3044 1889 
Q 2863 2041 2497 2041 
L 1791 2041 
L 1791 819 
L 2497 819 
z
M 3616 2497 
Q 4003 2384 4215 2081 
Q 4428 1778 4428 1338 
Q 4428 663 3972 331 
Q 3516 0 2584 0 
L 588 0 
L 588 4666 
L 2394 4666 
Q 3366 4666 3802 4372 
Q 4238 4078 4238 3431 
Q 4238 3091 4078 2852 
Q 3919 2613 3616 2497 
z
" transform="scale(0.015625)"/>
      <path id="DejaVuSans-Bold-6f" d="M 2203 2784 
Q 1831 2784 1636 2517 
Q 1441 2250 1441 1747 
Q 1441 1244 1636 976 
Q 1831 709 2203 709 
Q 2569 709 2762 976 
Q 2956 1244 2956 1747 
Q 2956 2250 2762 2517 
Q 2569 2784 2203 2784 
z
M 2203 3584 
Q 3106 3584 3614 3096 
Q 4122 2609 4122 1747 
Q 4122 884 3614 396 
Q 3106 -91 2203 -91 
Q 1297 -91 786 396 
Q 275 884 275 1747 
Q 275 2609 786 3096 
Q 1297 3584 2203 3584 
z
" transform="scale(0.015625)"/>
      <path id="DejaVuSans-Bold-6d" d="M 3781 2919 
Q 3994 3244 4286 3414 
Q 4578 3584 4928 3584 
Q 5531 3584 5847 3212 
Q 6163 2841 6163 2131 
L 6163 0 
L 5038 0 
L 5038 1825 
Q 5041 1866 5042 1909 
Q 5044 1953 5044 2034 
Q 5044 2406 4934 2573 
Q 4825 2741 4581 2741 
Q 4263 2741 4089 2478 
Q 3916 2216 3909 1719 
L 3909 0 
L 2784 0 
L 2784 1825 
Q 2784 2406 2684 2573 
Q 2584 2741 2328 2741 
Q 2006 2741 1831 2477 
Q 1656 2213 1656 1722 
L 1656 0 
L 531 0 
L 531 3500 
L 1656 3500 
L 1656 2988 
Q 1863 3284 2130 3434 
Q 2397 3584 2719 3584 
Q 3081 3584 3359 3409 
Q 3638 3234 3781 2919 
z
" transform="scale(0.015625)"/>
      <path id="DejaVuSans-Bold-50" d="M 588 4666 
L 2584 4666 
Q 3475 4666 3951 4270 
Q 4428 3875 4428 3144 
Q 4428 2409 3951 2014 
Q 3475 1619 2584 1619 
L 1791 1619 
L 1791 0 
L 588 0 
L 588 4666 
z
M 1791 3794 
L 1791 2491 
L 2456 2491 
Q 2806 2491 2997 2661 
Q 3188 2831 3188 3144 
Q 3188 3456 2997 3625 
Q 2806 3794 2456 3794 
L 1791 3794 
z
" transform="scale(0.015625)"/>
      <path id="DejaVuSans-Bold-65" d="M 4031 1759 
L 4031 1441 
L 1416 1441 
Q 1456 1047 1700 850 
Q 1944 653 2381 653 
Q 2734 653 3104 758 
Q 3475 863 3866 1075 
L 3866 213 
Q 3469 63 3072 -14 
Q 2675 -91 2278 -91 
Q 1328 -91 801 392 
Q 275 875 275 1747 
Q 275 2603 792 3093 
Q 1309 3584 2216 3584 
Q 3041 3584 3536 3087 
Q 4031 2591 4031 1759 
z
M 2881 2131 
Q 2881 2450 2695 2645 
Q 2509 2841 2209 2841 
Q 1884 2841 1681 2658 
Q 1478 2475 1428 2131 
L 2881 2131 
z
" transform="scale(0.015625)"/>
      <path id="DejaVuSans-Bold-e3" d="M 2106 1575 
Q 1756 1575 1579 1456 
Q 1403 1338 1403 1106 
Q 1403 894 1545 773 
Q 1688 653 1941 653 
Q 2256 653 2472 879 
Q 2688 1106 2688 1447 
L 2688 1575 
L 2106 1575 
z
M 3816 1997 
L 3816 0 
L 2688 0 
L 2688 519 
Q 2463 200 2181 54 
Q 1900 -91 1497 -91 
Q 953 -91 614 226 
Q 275 544 275 1050 
Q 275 1666 698 1953 
Q 1122 2241 2028 2241 
L 2688 2241 
L 2688 2328 
Q 2688 2594 2478 2717 
Q 2269 2841 1825 2841 
Q 1466 2841 1156 2769 
Q 847 2697 581 2553 
L 581 3406 
Q 941 3494 1303 3539 
Q 1666 3584 2028 3584 
Q 2975 3584 3395 3211 
Q 3816 2838 3816 1997 
z
M 2190 4263 
L 2018 4378 
Q 2006 4384 1987 4397 
Q 1840 4494 1762 4494 
Q 1650 4494 1590 4397 
Q 1531 4300 1531 4116 
L 1531 4091 
L 1097 4091 
Q 1097 4516 1257 4747 
Q 1418 4978 1709 4978 
Q 1822 4978 1936 4936 
Q 2050 4894 2178 4800 
L 2368 4666 
Q 2437 4619 2495 4594 
Q 2553 4569 2600 4569 
Q 2712 4569 2774 4669 
Q 2837 4769 2837 4947 
L 2837 4972 
L 3272 4972 
Q 3272 4547 3111 4315 
Q 2950 4084 2659 4084 
Q 2547 4084 2442 4121 
Q 2337 4159 2190 4263 
z
" transform="scale(0.015625)"/>
      <path id="DejaVuSans-Bold-64" d="M 2919 2988 
L 2919 4863 
L 4044 4863 
L 4044 0 
L 2919 0 
L 2919 506 
Q 2688 197 2409 53 
Q 2131 -91 1766 -91 
Q 1119 -91 703 423 
Q 288 938 288 1747 
Q 288 2556 703 3070 
Q 1119 3584 1766 3584 
Q 2128 3584 2408 3439 
Q 2688 3294 2919 2988 
z
M 2181 722 
Q 2541 722 2730 984 
Q 2919 1247 2919 1747 
Q 2919 2247 2730 2509 
Q 2541 2772 2181 2772 
Q 1825 2772 1636 2509 
Q 1447 2247 1447 1747 
Q 1447 1247 1636 984 
Q 1825 722 2181 722 
z
" transform="scale(0.015625)"/>
      <path id="DejaVuSans-Bold-53" d="M 3834 4519 
L 3834 3531 
Q 3450 3703 3084 3790 
Q 2719 3878 2394 3878 
Q 1963 3878 1756 3759 
Q 1550 3641 1550 3391 
Q 1550 3203 1689 3098 
Q 1828 2994 2194 2919 
L 2706 2816 
Q 3484 2659 3812 2340 
Q 4141 2022 4141 1434 
Q 4141 663 3683 286 
Q 3225 -91 2284 -91 
Q 1841 -91 1394 -6 
Q 947 78 500 244 
L 500 1259 
Q 947 1022 1364 901 
Q 1781 781 2169 781 
Q 2563 781 2772 912 
Q 2981 1044 2981 1288 
Q 2981 1506 2839 1625 
Q 2697 1744 2272 1838 
L 1806 1941 
Q 1106 2091 782 2419 
Q 459 2747 459 3303 
Q 459 4000 909 4375 
Q 1359 4750 2203 4750 
Q 2588 4750 2994 4692 
Q 3400 4634 3834 4519 
z
" transform="scale(0.015625)"/>
      <path id="DejaVuSans-Bold-6c" d="M 538 4863 
L 1656 4863 
L 1656 0 
L 538 0 
L 538 4863 
z
" transform="scale(0.015625)"/>
     </defs>
     <use xlink:href="#DejaVuSans-Bold-46"/>
     <use xlink:href="#DejaVuSans-Bold-72" transform="translate(61.935547 0)"/>
     <use xlink:href="#DejaVuSans-Bold-61" transform="translate(111.251953 0)"/>
     <use xlink:href="#DejaVuSans-Bold-6e" transform="translate(178.732422 0)"/>
     <use xlink:href="#DejaVuSans-Bold-63" transform="translate(249.923828 0)"/>
     <use xlink:href="#DejaVuSans-Bold-68" transform="translate(309.201172 0)"/>
     <use xlink:href="#DejaVuSans-Bold-69" transform="translate(380.392578 0)"/>
     <use xlink:href="#DejaVuSans-Bold-73" transform="translate(414.669922 0)"/>
     <use xlink:href="#DejaVuSans-Bold-69" transform="translate(474.191406 0)"/>
     <use xlink:href="#DejaVuSans-Bold-6e" transform="translate(508.46875 0)"/>
     <use xlink:href="#DejaVuSans-Bold-67" transform="translate(579.660156 0)"/>
     <use xlink:href="#DejaVuSans-Bold-20" transform="translate(651.242188 0)"/>
     <use xlink:href="#DejaVuSans-Bold-46" transform="translate(686.056641 0)"/>
     <use xlink:href="#DejaVuSans-Bold-61" transform="translate(748.492188 0)"/>
     <use xlink:href="#DejaVuSans-Bold-74" transform="translate(815.972656 0)"/>
     <use xlink:href="#DejaVuSans-Bold-75" transform="translate(863.775391 0)"/>
     <use xlink:href="#DejaVuSans-Bold-72" transform="translate(934.966797 0)"/>
     <use xlink:href="#DejaVuSans-Bold-61" transform="translate(984.283203 0)"/>
     <use xlink:href="#DejaVuSans-Bold-20" transform="translate(1051.763672 0)"/>
     <use xlink:href="#DejaVuSans-Bold-52" transform="translate(1086.578125 0)"/>
     <use xlink:href="#DejaVuSans-Bold-24" transform="translate(1163.580078 0)"/>
     <use xlink:href="#DejaVuSans-Bold-20" transform="translate(1233.160156 0)"/>
     <use xlink:href="#DejaVuSans-Bold-33" transform="translate(1267.974609 0)"/>
     <use xlink:href="#DejaVuSans-Bold-30" transform="translate(1337.554688 0)"/>
     <use xlink:href="#DejaVuSans-Bold-31" transform="translate(1407.134766 0)"/>
     <use xlink:href="#DejaVuSans-Bold-2c" transform="translate(1476.714844 0)"/>
     <use xlink:href="#DejaVuSans-Bold-37" transform="translate(1514.703125 0)"/>
     <use xlink:href="#DejaVuSans-Bold-20" transform="translate(1584.283203 0)"/>
     <use xlink:href="#DejaVuSans-Bold-42" transform="translate(1619.097656 0)"/>
     <use xlink:href="#DejaVuSans-Bold-69" transform="translate(1695.318359 0)"/>
     <use xlink:href="#DejaVuSans-Bold-20" transform="translate(1729.595703 0)"/>
     <use xlink:href="#DejaVuSans-Bold-63" transform="translate(1764.410156 0)"/>
     <use xlink:href="#DejaVuSans-Bold-6f" transform="translate(1823.6875 0)"/>
     <use xlink:href="#DejaVuSans-Bold-6d" transform="translate(1892.388672 0)"/>
     <use xlink:href="#DejaVuSans-Bold-20" transform="translate(1996.587891 0)"/>
     <use xlink:href="#DejaVuSans-Bold-50" transform="translate(2031.402344 0)"/>
     <use xlink:href="#DejaVuSans-Bold-72" transform="translate(2104.693359 0)"/>
     <use xlink:href="#DejaVuSans-Bold-65" transform="translate(2154.009766 0)"/>
     <use xlink:href="#DejaVuSans-Bold-73" transform="translate(2221.832031 0)"/>
     <use xlink:href="#DejaVuSans-Bold-73" transform="translate(2281.353516 0)"/>
     <use xlink:href="#DejaVuSans-Bold-e3" transform="translate(2340.875 0)"/>
     <use xlink:href="#DejaVuSans-Bold-6f" transform="translate(2408.355469 0)"/>
     <use xlink:href="#DejaVuSans-Bold-20" transform="translate(2477.056641 0)"/>
     <use xlink:href="#DejaVuSans-Bold-64" transform="translate(2511.871094 0)"/>
     <use xlink:href="#DejaVuSans-Bold-61" transform="translate(2583.453125 0)"/>
     <use xlink:href="#DejaVuSans-Bold-20" transform="translate(2650.933594 0)"/>
     <use xlink:href="#DejaVuSans-Bold-53" transform="translate(2685.748047 0)"/>
     <use xlink:href="#DejaVuSans-Bold-65" transform="translate(2757.769531 0)"/>
     <use xlink:href="#DejaVuSans-Bold-6c" transform="translate(2825.591797 0)"/>
     <use xlink:href="#DejaVuSans-Bold-69" transform="translate(2859.869141 0)"/>
     <use xlink:href="#DejaVuSans-Bold-63" transform="translate(2894.146484 0)"/>
    </g>
   </g>
  </g>
  <g id="text_35">
   <!-- ABF 2025 e BCB mar/2026 -->
   <g style="fill: #aaaaaa" transform="translate(472.79125 280.77375) scale(0.07 -0.07)">
    <defs>
     <path id="DejaVuSans-Oblique-41" d="M 2356 4666 
L 3072 4666 
L 3938 0 
L 3278 0 
L 3084 1197 
L 984 1197 
L 325 0 
L -341 0 
L 2356 4666 
z
M 2584 4044 
L 1275 1722 
L 2988 1722 
L 2584 4044 
z
" transform="scale(0.015625)"/>
     <path id="DejaVuSans-Oblique-42" d="M 1081 4666 
L 2694 4666 
Q 3350 4666 3675 4422 
Q 4000 4178 4000 3688 
Q 4000 3238 3720 2911 
Q 3441 2584 2988 2516 
Q 3375 2428 3569 2181 
Q 3763 1934 3763 1522 
Q 3763 819 3242 409 
Q 2722 0 1819 0 
L 172 0 
L 1081 4666 
z
M 1234 2228 
L 903 519 
L 1919 519 
Q 2491 519 2800 781 
Q 3109 1044 3109 1522 
Q 3109 1891 2904 2059 
Q 2700 2228 2247 2228 
L 1234 2228 
z
M 1606 4147 
L 1331 2741 
L 2272 2741 
Q 2775 2741 3058 2959 
Q 3341 3178 3341 3566 
Q 3341 3869 3150 4008 
Q 2959 4147 2541 4147 
L 1606 4147 
z
" transform="scale(0.015625)"/>
     <path id="DejaVuSans-Oblique-46" d="M 1081 4666 
L 3756 4666 
L 3653 4134 
L 1606 4134 
L 1338 2759 
L 3188 2759 
L 3084 2228 
L 1234 2228 
L 800 0 
L 172 0 
L 1081 4666 
z
" transform="scale(0.015625)"/>
     <path id="DejaVuSans-Oblique-20" transform="scale(0.015625)"/>
     <path id="DejaVuSans-Oblique-32" d="M 2950 2253 
L 934 525 
L 3163 525 
L 3053 0 
L 25 0 
L 128 531 
L 2234 2338 
Q 2656 2703 2832 2979 
Q 3009 3256 3009 3547 
Q 3009 3850 2796 4040 
Q 2584 4231 2241 4231 
Q 1944 4231 1581 4125 
Q 1219 4019 806 3816 
L 922 4441 
Q 1309 4594 1662 4672 
Q 2016 4750 2316 4750 
Q 2928 4750 3301 4425 
Q 3675 4100 3675 3572 
Q 3675 3216 3497 2892 
Q 3319 2569 2950 2253 
z
" transform="scale(0.015625)"/>
     <path id="DejaVuSans-Oblique-30" d="M 2444 4750 
Q 3078 4750 3414 4328 
Q 3750 3906 3750 3116 
Q 3750 2516 3592 1923 
Q 3434 1331 3150 863 
Q 2859 394 2467 151 
Q 2075 -91 1600 -91 
Q 988 -91 653 334 
Q 319 759 319 1544 
Q 319 2138 480 2733 
Q 641 3328 928 3794 
Q 1216 4263 1602 4506 
Q 1988 4750 2444 4750 
z
M 2406 4250 
Q 2169 4250 1955 4123 
Q 1741 3997 1569 3750 
Q 1281 3338 1111 2720 
Q 941 2103 941 1453 
Q 941 938 1123 673 
Q 1306 409 1663 409 
Q 1913 409 2125 536 
Q 2338 663 2509 909 
Q 2794 1319 2961 1936 
Q 3128 2553 3128 3206 
Q 3128 3722 2945 3986 
Q 2763 4250 2406 4250 
z
" transform="scale(0.015625)"/>
     <path id="DejaVuSans-Oblique-35" d="M 3719 4666 
L 3622 4141 
L 1691 4141 
L 1466 2988 
Q 1609 3034 1757 3056 
Q 1906 3078 2059 3078 
Q 2706 3078 3081 2731 
Q 3456 2384 3456 1791 
Q 3456 1375 3264 994 
Q 3072 613 2719 325 
Q 2469 125 2108 17 
Q 1747 -91 1319 -91 
Q 1038 -91 744 -41 
Q 450 9 128 109 
L 244 697 
Q 531 556 820 486 
Q 1109 416 1403 416 
Q 2013 416 2411 781 
Q 2809 1147 2809 1697 
Q 2809 2103 2548 2328 
Q 2288 2553 1819 2553 
Q 1572 2553 1305 2495 
Q 1038 2438 756 2322 
L 1209 4666 
L 3719 4666 
z
" transform="scale(0.015625)"/>
     <path id="DejaVuSans-Oblique-65" d="M 3078 2063 
Q 3088 2113 3092 2166 
Q 3097 2219 3097 2272 
Q 3097 2653 2873 2875 
Q 2650 3097 2266 3097 
Q 1838 3097 1509 2826 
Q 1181 2556 1013 2059 
L 3078 2063 
z
M 3578 1613 
L 903 1613 
Q 884 1494 878 1425 
Q 872 1356 872 1306 
Q 872 872 1139 634 
Q 1406 397 1894 397 
Q 2269 397 2603 481 
Q 2938 566 3225 728 
L 3116 159 
Q 2806 34 2476 -28 
Q 2147 -91 1806 -91 
Q 1078 -91 686 257 
Q 294 606 294 1247 
Q 294 1794 489 2264 
Q 684 2734 1063 3103 
Q 1306 3334 1642 3459 
Q 1978 3584 2356 3584 
Q 2950 3584 3301 3228 
Q 3653 2872 3653 2272 
Q 3653 2128 3634 1964 
Q 3616 1800 3578 1613 
z
" transform="scale(0.015625)"/>
     <path id="DejaVuSans-Oblique-43" d="M 4447 4306 
L 4319 3641 
Q 4019 3944 3683 4091 
Q 3347 4238 2956 4238 
Q 2422 4238 2017 3981 
Q 1613 3725 1319 3200 
Q 1131 2863 1032 2486 
Q 934 2109 934 1728 
Q 934 1091 1264 756 
Q 1594 422 2222 422 
Q 2656 422 3056 561 
Q 3456 700 3834 978 
L 3688 231 
Q 3316 72 2936 -9 
Q 2556 -91 2175 -91 
Q 1278 -91 773 396 
Q 269 884 269 1753 
Q 269 2309 461 2846 
Q 653 3384 1013 3828 
Q 1394 4300 1883 4525 
Q 2372 4750 3022 4750 
Q 3422 4750 3780 4639 
Q 4138 4528 4447 4306 
z
" transform="scale(0.015625)"/>
     <path id="DejaVuSans-Oblique-6d" d="M 5747 2113 
L 5338 0 
L 4763 0 
L 5166 2094 
Q 5191 2228 5203 2325 
Q 5216 2422 5216 2491 
Q 5216 2772 5059 2928 
Q 4903 3084 4622 3084 
Q 4203 3084 3875 2770 
Q 3547 2456 3450 1953 
L 3066 0 
L 2491 0 
L 2900 2094 
Q 2925 2209 2937 2307 
Q 2950 2406 2950 2484 
Q 2950 2769 2794 2926 
Q 2638 3084 2363 3084 
Q 1938 3084 1609 2770 
Q 1281 2456 1184 1953 
L 800 0 
L 225 0 
L 909 3500 
L 1484 3500 
L 1375 2956 
Q 1609 3263 1923 3423 
Q 2238 3584 2597 3584 
Q 2978 3584 3223 3384 
Q 3469 3184 3519 2828 
Q 3781 3197 4126 3390 
Q 4472 3584 4856 3584 
Q 5306 3584 5551 3325 
Q 5797 3066 5797 2591 
Q 5797 2488 5784 2364 
Q 5772 2241 5747 2113 
z
" transform="scale(0.015625)"/>
     <path id="DejaVuSans-Oblique-61" d="M 3438 1997 
L 3047 0 
L 2472 0 
L 2578 531 
Q 2325 219 2001 64 
Q 1678 -91 1281 -91 
Q 834 -91 548 182 
Q 263 456 263 884 
Q 263 1497 752 1853 
Q 1241 2209 2100 2209 
L 2900 2209 
L 2931 2363 
Q 2938 2388 2941 2417 
Q 2944 2447 2944 2509 
Q 2944 2788 2717 2942 
Q 2491 3097 2081 3097 
Q 1800 3097 1504 3025 
Q 1209 2953 897 2809 
L 997 3341 
Q 1322 3463 1633 3523 
Q 1944 3584 2234 3584 
Q 2853 3584 3176 3315 
Q 3500 3047 3500 2534 
Q 3500 2431 3484 2292 
Q 3469 2153 3438 1997 
z
M 2816 1759 
L 2241 1759 
Q 1534 1759 1195 1570 
Q 856 1381 856 984 
Q 856 709 1029 553 
Q 1203 397 1509 397 
Q 1978 397 2328 733 
Q 2678 1069 2791 1631 
L 2816 1759 
z
" transform="scale(0.015625)"/>
     <path id="DejaVuSans-Oblique-72" d="M 2853 2969 
Q 2766 3016 2653 3041 
Q 2541 3066 2413 3066 
Q 1953 3066 1609 2717 
Q 1266 2369 1153 1784 
L 800 0 
L 225 0 
L 909 3500 
L 1484 3500 
L 1375 2956 
Q 1603 3259 1920 3421 
Q 2238 3584 2597 3584 
Q 2691 3584 2781 3573 
Q 2872 3563 2963 3538 
L 2853 2969 
z
" transform="scale(0.015625)"/>
     <path id="DejaVuSans-Oblique-2f" d="M 2175 4666 
L 2731 4666 
L 84 -594 
L -469 -594 
L 2175 4666 
z
" transform="scale(0.015625)"/>
     <path id="DejaVuSans-Oblique-36" d="M 2938 1728 
Q 2938 2125 2734 2354 
Q 2531 2584 2181 2584 
Q 1697 2584 1367 2211 
Q 1038 1838 1038 1288 
Q 1038 875 1239 642 
Q 1441 409 1797 409 
Q 2284 409 2611 792 
Q 2938 1175 2938 1728 
z
M 3788 4556 
L 3681 3981 
Q 3500 4100 3265 4162 
Q 3031 4225 2766 4225 
Q 2119 4225 1726 3819 
Q 1334 3413 1141 2547 
Q 1369 2813 1670 2948 
Q 1972 3084 2322 3084 
Q 2894 3084 3233 2754 
Q 3572 2425 3572 1869 
Q 3572 1413 3405 1020 
Q 3238 628 2919 331 
Q 2700 128 2409 18 
Q 2119 -91 1791 -91 
Q 1147 -91 775 318 
Q 403 728 403 1441 
Q 403 2103 573 2717 
Q 744 3331 1050 3781 
Q 1372 4256 1830 4503 
Q 2288 4750 2841 4750 
Q 3084 4750 3321 4701 
Q 3559 4653 3788 4556 
z
" transform="scale(0.015625)"/>
    </defs>
    <use xlink:href="#DejaVuSans-Oblique-41"/>
    <use xlink:href="#DejaVuSans-Oblique-42" transform="translate(68.408203 0)"/>
    <use xlink:href="#DejaVuSans-Oblique-46" transform="translate(137.011719 0)"/>
    <use xlink:href="#DejaVuSans-Oblique-20" transform="translate(194.53125 0)"/>
    <use xlink:href="#DejaVuSans-Oblique-32" transform="translate(226.318359 0)"/>
    <use xlink:href="#DejaVuSans-Oblique-30" transform="translate(289.941406 0)"/>
    <use xlink:href="#DejaVuSans-Oblique-32" transform="translate(353.564453 0)"/>
    <use xlink:href="#DejaVuSans-Oblique-35" transform="translate(417.1875 0)"/>
    <use xlink:href="#DejaVuSans-Oblique-20" transform="translate(480.810547 0)"/>
    <use xlink:href="#DejaVuSans-Oblique-65" transform="translate(512.597656 0)"/>
    <use xlink:href="#DejaVuSans-Oblique-20" transform="translate(574.121094 0)"/>
    <use xlink:href="#DejaVuSans-Oblique-42" transform="translate(605.908203 0)"/>
    <use xlink:href="#DejaVuSans-Oblique-43" transform="translate(674.511719 0)"/>
    <use xlink:href="#DejaVuSans-Oblique-42" transform="translate(744.335938 0)"/>
    <use xlink:href="#DejaVuSans-Oblique-20" transform="translate(812.939453 0)"/>
    <use xlink:href="#DejaVuSans-Oblique-6d" transform="translate(844.726562 0)"/>
    <use xlink:href="#DejaVuSans-Oblique-61" transform="translate(942.138672 0)"/>
    <use xlink:href="#DejaVuSans-Oblique-72" transform="translate(1003.417969 0)"/>
    <use xlink:href="#DejaVuSans-Oblique-2f" transform="translate(1044.53125 0)"/>
    <use xlink:href="#DejaVuSans-Oblique-32" transform="translate(1078.222656 0)"/>
    <use xlink:href="#DejaVuSans-Oblique-30" transform="translate(1141.845703 0)"/>
    <use xlink:href="#DejaVuSans-Oblique-32" transform="translate(1205.46875 0)"/>
    <use xlink:href="#DejaVuSans-Oblique-36" transform="translate(1269.091797 0)"/>
   </g>
  </g>
 </g>
 <defs>
  <clipPath id="pa3d644c262">
   <rect x="74.791562" y="28.53375" width="486.25" height="227.24"/>
  </clipPath>
 </defs>
</svg>
